<?xml version="1.0" encoding="UTF-8"?>
<svg version="1.1" xmlns="http://www.w3.org/2000/svg" width="500" height="500">
<path d="M0 0 C165 0 330 0 500 0 C500 165 500 330 500 500 C335 500 170 500 0 500 C0 335 0 170 0 0 Z " fill="#FEFEFE" transform="translate(0,0)"/>
<path d="M0 0 C16.01571983 4.99094525 31.65800422 13.89679623 45.46875 23.328125 C46.90734375 24.31039062 46.90734375 24.31039062 48.375 25.3125 C49.16648438 25.88613281 49.95796875 26.45976562 50.7734375 27.05078125 C52.95432803 28.23519341 52.95432803 28.23519341 55.21875 27.51171875 C59.27266358 25.30825729 63.19753842 22.92024106 67.125 20.5 C74.05119639 16.2937381 81.02923392 12.23687635 88.1875 8.4375 C88.9398291 8.03273437 89.6921582 7.62796875 90.46728516 7.2109375 C95.49820928 4.57659516 100.56494881 2.63891389 106 1 C103.24033472 3.95086611 100.53792431 6.01905503 97.0625 8.0625 C90.74544573 12.00225858 85.23000237 16.611978 79.66699219 21.52978516 C77.9582492 23.0368224 76.23333688 24.52394829 74.5078125 26.01171875 C73.39988136 26.98566082 72.2930694 27.96087783 71.1875 28.9375 C70.66551025 29.38577148 70.14352051 29.83404297 69.60571289 30.29589844 C67.98196516 31.71159609 67.98196516 31.71159609 66 34 C66 35.32 66 36.64 66 38 C67.81950727 39.75676564 69.55981537 41.23377469 71.5625 42.75 C76.62778894 46.78284036 81.01048595 50.86657315 85 56 C85.66773438 56.85464844 86.33546875 57.70929688 87.0234375 58.58984375 C96.70144406 71.41590078 100.34265835 82.01561488 99 98 C96.71066491 109.33634604 89.34158661 118.34298129 81 126 C80.09777245 122.96622186 79.94535049 120.43423568 80.11328125 117.28125 C81.10098211 91.10717716 71.9968933 71.78407619 57 51 C56.34 50.01 55.68 49.02 55 48 C54.34 48 53.68 48 53 48 C50.4146202 51.14474957 48.25161161 54.61116468 46 58 C45.41605469 58.85335937 44.83210938 59.70671875 44.23046875 60.5859375 C33.60165977 76.56514016 27.24093576 92.95826924 27.75 112.3125 C27.77013534 113.65036329 27.78837345 114.98825653 27.8046875 116.32617188 C27.85126371 119.55157429 27.91665149 122.7753745 28 126 C17.8947573 119.84075265 12.2312065 110.2130559 9 99 C8.67 98.01 8.34 97.02 8 96 C6.56894297 81.49678744 12.18682053 68.97664692 20.9375 57.75 C27.35781042 50.03831785 34.62234999 42.5851 43 37 C37.96183393 25.88710738 24.78890581 18.24605816 15.25 11.125 C14.63640625 10.66061523 14.0228125 10.19623047 13.390625 9.71777344 C10.38574617 7.50458952 7.5914995 5.73554529 4.109375 4.3671875 C3.08328125 3.91601562 2.0571875 3.46484375 1 3 C0.67 2.01 0.34 1.02 0 0 Z " fill="#FCBC5B" transform="translate(194,193)"/>
<path d="M0 0 C10.60541791 3.08351358 19.84164327 10.94887336 25.4375 20.4375 C26.80802378 26.6809972 26.74255982 31.338167 23.625 37.0625 C11.51842319 55.19434073 -12.11343935 60.48347672 -32 65 C-32.83950195 65.1949707 -33.67900391 65.38994141 -34.54394531 65.59082031 C-73.21111853 74.14898011 -126.56941367 70.16135834 -160.23828125 48.9609375 C-166.37677134 44.39571968 -170.59200314 38.81599372 -174 32 C-174.83389079 25.59095365 -174.19854945 21.02528828 -170.421875 15.7421875 C-168.42437626 13.29470278 -166.34643366 11.1175133 -164 9 C-163.23623047 8.28263672 -163.23623047 8.28263672 -162.45703125 7.55078125 C-160.875 6.125 -160.875 6.125 -158 4 C-157.01 4.33 -156.02 4.66 -155 5 C-155.639375 5.268125 -156.27875 5.53625 -156.9375 5.8125 C-159.33131686 6.88667752 -159.33131686 6.88667752 -160 10 C-160.66 10 -161.32 10 -162 10 C-162.433125 11.11375 -162.433125 11.11375 -162.875 12.25 C-164 15 -164 15 -165.0390625 16.91015625 C-166.73798408 20.60496538 -166.71335183 24.03198044 -166 28 C-160.65626725 39.7679997 -150.43100842 45.28927621 -139 50 C-137.93265625 50.45503906 -136.8653125 50.91007812 -135.765625 51.37890625 C-127.99401979 54.5538913 -120.27606447 56.64755638 -112 58 C-111.17161621 58.13680176 -110.34323242 58.27360352 -109.48974609 58.41455078 C-71.69424892 64.41501722 -26.10808946 63.62954648 6.72265625 41.453125 C9 40 9 40 12 39 C13.08431094 37.25132517 13.08431094 37.25132517 14 35 C14.53625 34.154375 15.0725 33.30875 15.625 32.4375 C17.8062702 26.9843245 18.26993861 21.29055205 16.12109375 15.72265625 C12.27005202 9.10089803 6.54694768 4.76945473 0 1 C0 0.67 0 0.34 0 0 Z " fill="#F8BE64" transform="translate(324,280)"/>
<path d="M0 0 C8.33110112 2.91712146 15.30190652 11.09435736 20.6328125 17.921875 C21.30183594 18.7778125 21.97085937 19.63375 22.66015625 20.515625 C32.33431668 33.34244479 35.97537721 43.93860466 34.6328125 59.921875 C32.34347741 71.25822104 24.97439911 80.26485629 16.6328125 87.921875 C15.73058495 84.88809686 15.57816299 82.35611068 15.74609375 79.203125 C16.73379461 53.02905216 7.6297058 33.70595119 -7.3671875 12.921875 C-9.3671875 9.921875 -9.3671875 9.921875 -9.1640625 7.94140625 C-8.27530915 5.68902644 -7.2932399 4.35022324 -5.6171875 2.609375 C-5.12734375 2.07699219 -4.6375 1.54460937 -4.1328125 0.99609375 C-2.3671875 -0.078125 -2.3671875 -0.078125 0 0 Z " fill="#FB914E" transform="translate(258.3671875,231.078125)"/>
<path d="M0 0 C5.77349472 2.63525043 8.71372069 6.03368441 12.25 11.25390625 C13.85639475 16.07309049 13.35255003 20.91419221 11.17578125 25.484375 C7.12739625 31.47394146 0.91720373 36.44684275 -6.0625 38.31640625 C-12.02721048 38.54702774 -16.56433115 37.40565066 -21.0625 33.31640625 C-25.00698246 28.20318824 -26.98443823 23.23318675 -26.6015625 16.734375 C-25.16060073 10.27093053 -20.59029615 6.46848974 -15.3125 2.87890625 C-10.14130797 -0.3486915 -6.20735719 -2.0573627 0 0 Z " fill="#F59456" transform="translate(378.0625,184.68359375)"/>
<path d="M0 0 C1.79942675 2.00003852 3.39847811 3.97436064 5 6.125 C5.9749784 7.40125715 6.95024788 8.67729199 7.92578125 9.953125 C8.42803223 10.61634766 8.9302832 11.27957031 9.44775391 11.96289062 C11.98871421 15.29755133 14.5902796 18.58410674 17.1875 21.875 C18.11877862 23.05966868 19.04979514 24.24454347 19.98046875 25.4296875 C20.64691406 26.27789062 21.31335938 27.12609375 22 28 C21.25 29.9375 21.25 29.9375 20 32 C18.02 32.495 18.02 32.495 16 33 C11.71 27.72 7.42 22.44 3 17 C3 21.66418357 5.18169633 25.75875837 6.95507812 30.01953125 C8.53316121 34.00744004 9.60837691 36.78869427 8 41 C7.34 41.66 6.68 42.32 6 43 C2.77641187 42.62018018 0.3962871 41.18912127 -2.328125 39.49609375 C-3.12734375 39.00302734 -3.9265625 38.50996094 -4.75 38.00195312 C-5.575 37.48568359 -6.4 36.96941406 -7.25 36.4375 C-8.09046875 35.91736328 -8.9309375 35.39722656 -9.796875 34.86132812 C-11.86756237 33.57891379 -13.93508572 32.29168194 -16 31 C-14.72854451 33.72973709 -13.36025537 35.95319143 -11.3984375 38.234375 C-10.90859375 38.80800781 -10.41875 39.38164062 -9.9140625 39.97265625 C-9.40617187 40.55917969 -8.89828125 41.14570313 -8.375 41.75 C-7.859375 42.35199219 -7.34375 42.95398438 -6.8125 43.57421875 C-5.54530865 45.05260866 -4.27314225 46.52673171 -3 48 C-3.75 49.9375 -3.75 49.9375 -5 52 C-7.078125 52.62890625 -7.078125 52.62890625 -9 53 C-12.19639658 49.0732912 -15.38996431 45.14433728 -18.578125 41.2109375 C-20.57604597 38.74712867 -22.58201161 36.29118878 -24.609375 33.8515625 C-25.31578125 32.99304688 -26.0221875 32.13453125 -26.75 31.25 C-27.67039063 30.14398438 -27.67039063 30.14398438 -28.609375 29.015625 C-30.01919168 26.97218285 -30.58423263 25.42895676 -31 23 C-28.03 20.525 -28.03 20.525 -25 18 C-21.54252773 19.28973742 -18.52927613 20.79333145 -15.42578125 22.78515625 C-14.59369141 23.31560547 -13.76160156 23.84605469 -12.90429688 24.39257812 C-12.04900391 24.94365234 -11.19371094 25.49472656 -10.3125 26.0625 C-8.60073061 27.15828694 -6.88851292 28.25337399 -5.17578125 29.34765625 C-4.42208252 29.83242432 -3.66838379 30.31719238 -2.8918457 30.81665039 C-1.01668656 32.03130963 -1.01668656 32.03130963 1 33 C0.72736328 32.29915283 0.45472656 31.59830566 0.17382812 30.8762207 C-1.05944227 27.69158979 -2.27982723 24.50217085 -3.5 21.3125 C-3.92925781 20.20970703 -4.35851562 19.10691406 -4.80078125 17.97070312 C-5.40986328 16.3706543 -5.40986328 16.3706543 -6.03125 14.73828125 C-6.40830078 13.75899658 -6.78535156 12.77971191 -7.17382812 11.77075195 C-8.01058653 8.96449572 -8.3400183 6.9047366 -8 4 C-5.22028536 1.22028536 -3.98855034 0 0 0 Z " fill="#F09861" transform="translate(160,151)"/>
<path d="M0 0 C2.18743873 1.83462603 2.83764043 2.79174559 3.17578125 5.61328125 C3.31213278 9.88323718 3.3393717 12.00963396 0.9375 15.6875 C0.2775 16.326875 -0.3825 16.96625 -1.0625 17.625 C-0.340625 18.264375 0.38125 18.90375 1.125 19.5625 C4.58009071 23.00771902 6.9791809 27.17503233 8.9375 31.625 C8.9375 32.615 8.9375 33.605 8.9375 34.625 C6.2975 34.625 3.6575 34.625 0.9375 34.625 C0.57398438 33.77035156 0.21046875 32.91570312 -0.1640625 32.03515625 C-0.66679687 30.93042969 -1.16953125 29.82570312 -1.6875 28.6875 C-2.17476562 27.58535156 -2.66203125 26.48320312 -3.1640625 25.34765625 C-4.83143929 22.34896492 -4.83143929 22.34896492 -8.0859375 21.74609375 C-10.07688699 21.66509712 -12.06990362 21.625 -14.0625 21.625 C-13.918125 22.27726562 -13.77375 22.92953125 -13.625 23.6015625 C-12.61622706 28.35120177 -11.80534694 32.73909188 -12.0625 37.625 C-15.5275 38.12 -15.5275 38.12 -19.0625 38.625 C-20.90967994 31.79376246 -22.08501666 24.92397775 -23.1875 17.9375 C-23.36925781 16.82310547 -23.55101562 15.70871094 -23.73828125 14.56054688 C-23.99544922 12.94696289 -23.99544922 12.94696289 -24.2578125 11.30078125 C-24.41266113 10.33052002 -24.56750977 9.36025879 -24.72705078 8.3605957 C-25.04730682 5.7489007 -25.12410739 3.25288412 -25.0625 0.625 C-6.54489668 -2.93852504 -6.54489668 -2.93852504 0 0 Z " fill="#F89251" transform="translate(236.0625,128.375)"/>
<path d="M0 0 C6.21825896 1.03637649 6.21825896 1.03637649 9 3 C9.91308594 5.79736328 9.91308594 5.79736328 10.484375 9.3203125 C10.80341797 11.20556641 10.80341797 11.20556641 11.12890625 13.12890625 C11.33632029 14.46087795 11.54334657 15.79291008 11.75 17.125 C11.97103281 18.46511252 12.19367021 19.80496145 12.41796875 21.14453125 C12.9611824 24.42743111 13.48775556 27.71214961 14 31 C14.33410889 30.1946582 14.66821777 29.38931641 15.01245117 28.55957031 C15.45564697 27.49319336 15.89884277 26.42681641 16.35546875 25.328125 C17.01131958 23.7488623 17.01131958 23.7488623 17.68041992 22.13769531 C19.39348465 18.06437286 21.17995467 14.02646901 23 10 C25.31 10.33 27.62 10.66 30 11 C29.31815331 15.25712573 27.89819977 19.07991713 26.27734375 23.05078125 C26.01240616 23.70958786 25.74746857 24.36839447 25.47450256 25.04716492 C24.63289135 27.13727337 23.78529668 29.22489393 22.9375 31.3125 C22.36353459 32.73486562 21.78996263 34.15739008 21.21679688 35.58007812 C19.8157456 39.05524054 18.40932541 42.52818532 17 46 C13.625 45.75 13.625 45.75 10 45 C7.8338908 42.26992426 7.51863212 39.07647246 6.96484375 35.68359375 C6.79533203 34.67232422 6.62582031 33.66105469 6.45117188 32.61914062 C6.28166016 31.56919922 6.11214844 30.51925781 5.9375 29.4375 C5.59446843 27.35253115 5.24950299 25.26787929 4.90234375 23.18359375 C4.67792603 21.79998657 4.67792603 21.79998657 4.44897461 20.38842773 C4.03071763 17.86628378 4.03071763 17.86628378 3 15 C0.03 22.26 -2.94 29.52 -6 37 C-8.31 36.67 -10.62 36.34 -13 36 C-12.406639 31.53596415 -11.25791078 27.76674271 -9.53125 23.61328125 C-9.04269531 22.42798828 -8.55414063 21.24269531 -8.05078125 20.02148438 C-7.53409003 18.78505766 -7.01716048 17.54873051 -6.5 16.3125 C-5.48773896 13.87185433 -4.47846585 11.42998198 -3.46875 8.98828125 C-2.79489258 7.37240112 -2.79489258 7.37240112 -2.10742188 5.72387695 C-1.34168105 3.84041787 -0.64294457 1.9288337 0 0 Z " fill="#F89251" transform="translate(299,132)"/>
<path d="M0 0 C2.3443864 1.99845577 4.3466214 4.24906161 6.375 6.5625 C6.94790771 7.19857178 7.52081543 7.83464355 8.11108398 8.48999023 C9.75192866 10.31705646 11.37756743 12.15658907 13 14 C13.74636719 14.8353125 14.49273437 15.670625 15.26171875 16.53125 C16.86272753 18.33716012 18.4397356 20.158888 20 22 C21.2065625 23.423125 21.2065625 23.423125 22.4375 24.875 C24 27 24 27 24 29 C21.8128711 30.32789969 20.52279544 31.04752686 17.9375 30.8125 C15.70445074 29.87605999 14.50842356 28.88552944 13 27 C13 26.34 13 25.68 13 25 C12.15695313 25.28875 11.31390625 25.5775 10.4453125 25.875 C9.34960938 26.24625 8.25390625 26.6175 7.125 27 C6.03445312 27.37125 4.94390625 27.7425 3.8203125 28.125 C1 29 1 29 -1 29 C-1 32.63 -1 36.26 -1 40 C-3.31 40.66 -5.62 41.32 -8 42 C-9.33025451 34.71154671 -9.6678843 27.38606614 -10 20 C-10.0407666 19.19159668 -10.0815332 18.38319336 -10.12353516 17.55029297 C-10.23655581 15.09606148 -10.31103769 12.64345366 -10.375 10.1875 C-10.41310791 9.41696289 -10.45121582 8.64642578 -10.49047852 7.85253906 C-10.5234375 5.66796875 -10.5234375 5.66796875 -10 2 C-6.70224489 -1.09383033 -4.16639659 -1.76851577 0 0 Z " fill="#EF9B66" transform="translate(191,138)"/>
<path d="M0 0 C6.02341096 2.42344247 9.75876257 5.40424389 12.71484375 11.31640625 C12.75506766 13.64939285 12.75804622 15.98347291 12.71484375 18.31640625 C10.40484375 18.31640625 8.09484375 18.31640625 5.71484375 18.31640625 C5.48796875 17.05828125 5.26109375 15.80015625 5.02734375 14.50390625 C4.24423978 11.40982412 3.92667067 10.50469685 1.46484375 8.31640625 C-1.83858572 7.11515917 -3.79653217 6.74683497 -7.28515625 7.31640625 C-12.38694057 10.58154822 -15.44607752 14.50217599 -17.28515625 20.31640625 C-17.28515625 24.04524819 -16.74603905 25.66775638 -14.59765625 28.69140625 C-11.57103002 30.81822468 -9.9087801 30.93319329 -6.28515625 30.31640625 C-4.37258913 28.43562752 -4.37258913 28.43562752 -3.28515625 26.31640625 C-5.26515625 24.99640625 -7.24515625 23.67640625 -9.28515625 22.31640625 C-8.62515625 20.66640625 -7.96515625 19.01640625 -7.28515625 17.31640625 C-3.52396149 17.94034276 -1.09555583 19.6641434 1.96484375 21.87890625 C2.856875 22.51957031 3.74890625 23.16023438 4.66796875 23.8203125 C5.3434375 24.31402344 6.01890625 24.80773437 6.71484375 25.31640625 C6.12001243 29.15173657 4.33716252 31.35306467 1.90234375 34.31640625 C1.21527344 35.16203125 0.52820313 36.00765625 -0.1796875 36.87890625 C-2.12734927 39.1337132 -4.1481833 41.24186172 -6.28515625 43.31640625 C-8.76015625 40.84140625 -8.76015625 40.84140625 -11.28515625 38.31640625 C-10.62515625 37.32640625 -9.96515625 36.33640625 -9.28515625 35.31640625 C-11.07953125 35.47109375 -11.07953125 35.47109375 -12.91015625 35.62890625 C-16.28491053 35.64087346 -18.05186682 35.16026435 -20.66015625 33.00390625 C-24.19323297 29.38670865 -25.61246566 27.25473789 -25.78515625 22.25390625 C-25.64719753 15.73535683 -23.41921596 11.2842259 -19.28515625 6.31640625 C-13.38174123 0.93773923 -8.22471609 -2.46038515 0 0 Z " fill="#F2965B" transform="translate(349.28515625,156.68359375)"/>
<path d="M0 0 C0.33 2.31 0.66 4.62 1 7 C0.236875 7.2475 -0.52625 7.495 -1.3125 7.75 C-4.32166511 9.14961168 -5.4268497 10.10209155 -7 13 C-7.25124826 15.66761764 -7.25124826 15.66761764 -7 18 C-1.89770368 17.89370216 0.27068453 17.03896629 3.9375 13.4375 C6.65193077 10.88583007 8.34447445 9.47092202 12.125 9.3125 C17.09609395 10.19446828 20.21709263 11.82950407 23.4375 15.75 C24.68153787 20.72615148 23.63685282 24.79705578 21.3125 29.1875 C18.35487435 32.78461227 15.21646388 35.89176806 11 38 C9.00039988 38.039992 6.99952758 38.04346799 5 38 C4.67 35.69 4.34 33.38 4 31 C4.61488281 30.82984375 5.22976562 30.6596875 5.86328125 30.484375 C10.86758585 29.01325908 10.86758585 29.01325908 15.125 26.125 C16.25285889 23.38591412 15.85245181 21.78984228 15 19 C13.29155367 18.12878131 13.29155367 18.12878131 11 18 C8.16357765 19.6048827 8.16357765 19.6048827 5.375 21.875 C-2.16128656 27.6736977 -2.16128656 27.6736977 -8 27 C-10.92937654 25.18689858 -13.43647949 23.12704101 -15 20 C-15.62682166 14.8063348 -15.43237239 12.02182527 -12.3125 7.75 C-5.82874016 0 -5.82874016 0 0 0 Z " fill="#ED9C67" transform="translate(123,188)"/>
<path d="M0 0 C4.30465805 3.56774372 6.73950355 6.49146943 7.37109375 12.17578125 C6.82343004 17.46986383 4.08227641 21.42523905 -0.00390625 24.80078125 C-4.99867512 26.46570421 -9.50666604 27.00407191 -14.37109375 24.66015625 C-17.82313061 22.12948154 -19.68035584 20.12358405 -20.7109375 15.91015625 C-20.99416051 10.66723727 -20.60246672 6.77751671 -17.25390625 2.61328125 C-12.97943 -1.82310698 -5.40284989 -3.23328443 0 0 Z " fill="#FABD5D" transform="translate(255.00390625,179.19921875)"/>
<path d="M0 0 C3.60199656 2.52906142 4.76443405 4.23787487 6.0625 8.4375 C5.98222746 13.01303501 5.03742214 14.59216053 2 18 C-1.69637673 21.10071338 -5.30751819 23.29082851 -10.1875 23.6875 C-14 23 -14 23 -17 20.4375 C-19.3625178 16.37692252 -19.89011818 14.61243059 -19 10 C-14.65151094 3.01649935 -8.49312955 -1.80157293 0 0 Z " fill="#FDFBF6" transform="translate(378,192)"/>
<path d="M0 0 C10.04584053 -0.15723924 19.9811352 0.32807613 30 1 C30 2.98 30 4.96 30 7 C26.04 7 22.08 7 18 7 C18.01160156 7.84820312 18.02320313 8.69640625 18.03515625 9.5703125 C18.20300752 31.39097744 18.20300752 31.39097744 16 38 C13.69 38 11.38 38 9 38 C9.95107034 16.03975535 9.95107034 16.03975535 11 6 C7.37 6 3.74 6 0 6 C0 4.02 0 2.04 0 0 Z " fill="#F59559" transform="translate(246,125)"/>
<path d="M0 0 C5.5 3 5.5 3 7 6 C7.53118252 10.91996928 7.75105553 14.77327597 5.125 19.0625 C1.4010035 22.45790857 -1.62271642 22.38765771 -6.515625 22.359375 C-9 22 -9 22 -12.0625 19.625 C-14.74781439 15.98683212 -15.39279906 13.69292064 -15.359375 9.10546875 C-14.72418186 5.38406547 -12.66020984 3.59687151 -10 1 C-6.78918322 -0.60540839 -3.48289645 -0.48463309 0 0 Z " fill="#FA924F" transform="translate(291,220)"/>
<path d="M0 0 C3.07469523 1.70251719 5.40613254 3.81226508 7 7 C7.34708476 12.29304255 7.51351894 15.73358414 4 20 C-0.19607564 22.54090721 -4.21235424 22.71686675 -9 22 C-11.87029869 20.20606332 -13.49131638 19.01736724 -15 16 C-15.53118252 11.08003072 -15.75105553 7.22672403 -13.125 2.9375 C-9.16048012 -0.6772093 -5.18775722 -0.80079474 0 0 Z " fill="#FABD5E" transform="translate(213,220)"/>
<path d="M0 0 C16.2787399 4.49068687 30.14043078 15.46609755 43 26 C41.80138618 29.72542134 40.49431746 33.31250159 38.875 36.875 C38.34519531 38.04675781 38.34519531 38.04675781 37.8046875 39.2421875 C37.53914063 39.82226562 37.27359375 40.40234375 37 41 C34.88926808 38.29409077 33.15920256 35.56221682 31.5 32.5625 C23.67067472 19.5707729 13.64468276 10.81747107 1.38598633 2.10058594 C0.92861084 1.73739258 0.47123535 1.37419922 0 1 C0 0.67 0 0.34 0 0 Z " fill="#F6BE68" transform="translate(164,230)"/>
<path d="M0 0 C0.66 0.33 1.32 0.66 2 1 C1.18917969 1.60585937 0.37835938 2.21171875 -0.45703125 2.8359375 C-15.05170688 13.83074101 -26.30730609 24.74844182 -35 41 C-37.08301383 38.50038341 -38.74764619 35.84325981 -40.3125 33 C-40.67988281 32.34 -41.04726563 31.68 -41.42578125 31 C-42 29 -42 29 -41.4609375 27.04296875 C-33.1056142 15.35892039 -13.1834454 5.16557486 0 0 Z " fill="#FA914E" transform="translate(331,229)"/>
<path d="M0 0 C18.9430711 5.9031896 36.53155993 17.15673497 53 28 C51.82255415 31.53233755 51.04394359 31.86308075 47.9375 33.6875 C47.20402344 34.12449219 46.47054687 34.56148437 45.71484375 35.01171875 C45.14894531 35.33785156 44.58304688 35.66398437 44 36 C43.40574219 35.38253906 42.81148437 34.76507813 42.19921875 34.12890625 C33.85169001 25.59962727 24.80094031 18.26312088 15.25 11.125 C14.63616455 10.66037354 14.0223291 10.19574707 13.38989258 9.71704102 C10.38517876 7.50429866 7.59114415 5.73540565 4.109375 4.3671875 C3.08328125 3.91601562 2.0571875 3.46484375 1 3 C0.67 2.01 0.34 1.02 0 0 Z " fill="#EF9961" transform="translate(194,193)"/>
<path d="M0 0 C2.18067241 1.82895105 2.81256556 2.82004267 3.24609375 5.61328125 C3.58904504 11.79679697 3.58904504 11.79679697 1.59765625 14.328125 C-0.0625 15.6875 -0.0625 15.6875 -3.0625 17.625 C-3.3925 16.965 -3.7225 16.305 -4.0625 15.625 C-5.0525 15.955 -6.0425 16.285 -7.0625 16.625 C-8.62368428 16.69240865 -10.1875252 16.71014456 -11.75 16.6875 C-12.96236328 16.67396484 -12.96236328 16.67396484 -14.19921875 16.66015625 C-14.81410156 16.64855469 -15.42898437 16.63695312 -16.0625 16.625 C-17.44476016 13.86047967 -17.15775387 11.5788637 -17.125 8.5 C-17.11597656 7.40429688 -17.10695312 6.30859375 -17.09765625 5.1796875 C-17.08605469 4.33664063 -17.07445312 3.49359375 -17.0625 2.625 C-14.0925 2.625 -11.1225 2.625 -8.0625 2.625 C-9.22527032 1.23343516 -9.22527032 1.23343516 -12.44140625 1.52734375 C-13.83597077 1.53401631 -15.23051743 1.54597468 -16.625 1.5625 C-17.33591797 1.56701172 -18.04683594 1.57152344 -18.77929688 1.57617188 C-20.54040013 1.58799136 -22.30146036 1.60592737 -24.0625 1.625 C-24.3925 2.945 -24.7225 4.265 -25.0625 5.625 C-25.0625 3.975 -25.0625 2.325 -25.0625 0.625 C-6.54489668 -2.93852504 -6.54489668 -2.93852504 0 0 Z " fill="#EF9C66" transform="translate(236.0625,128.375)"/>
<path d="M0 0 C-0.33 1.98 -0.66 3.96 -1 6 C-1.99 6 -2.98 6 -4 6 C-4.02903577 9.10414702 -4.0468107 12.20825909 -4.0625 15.3125 C-4.07087891 16.19357422 -4.07925781 17.07464844 -4.08789062 17.98242188 C-4.09272461 19.25375977 -4.09272461 19.25375977 -4.09765625 20.55078125 C-4.10289307 21.33106689 -4.10812988 22.11135254 -4.11352539 22.9152832 C-4.08137863 25.1961555 -4.08137863 25.1961555 -3 28 C-2.93259135 29.56118428 -2.91485544 31.1250252 -2.9375 32.6875 C-2.94652344 33.49574219 -2.95554688 34.30398437 -2.96484375 35.13671875 C-2.97644531 35.75160156 -2.98804688 36.36648437 -3 37 C-4.32 37 -5.64 37 -7 37 C-9.42750134 33.35874799 -9.38995822 31.28577292 -9.625 26.9375 C-9.66294678 26.24591797 -9.70089355 25.55433594 -9.73999023 24.84179688 C-10.14698033 16.56540869 -10.08628581 8.28343777 -10 0 C-6.26798075 -0.84676067 -3.73059699 -0.95929637 0 0 Z " fill="#F4965A" transform="translate(191,140)"/>
<path d="M0 0 C10.04584053 -0.15723924 19.9811352 0.32807613 30 1 C30 2.98 30 4.96 30 7 C26.04 7 22.08 7 18 7 C18 6.67 18 6.34 18 6 C22.455 5.505 22.455 5.505 27 5 C27.33 4.01 27.66 3.02 28 2 C24.37 2 20.74 2 17 2 C17 3.65 17 5.3 17 7 C15.68 7.33 14.36 7.66 13 8 C12.34 17.24 11.68 26.48 11 36 C12.65 36 14.3 36 16 36 C16 36.66 16 37.32 16 38 C13.69 38 11.38 38 9 38 C9.95107034 16.03975535 9.95107034 16.03975535 11 6 C7.37 6 3.74 6 0 6 C0 4.02 0 2.04 0 0 Z " fill="#EF985F" transform="translate(246,125)"/>
<path d="M0 0 C6.21825896 1.03637649 6.21825896 1.03637649 9 3 C9.91308594 5.79736328 9.91308594 5.79736328 10.484375 9.3203125 C10.69707031 10.57714844 10.90976562 11.83398438 11.12890625 13.12890625 C11.33632029 14.46087795 11.54334657 15.79291008 11.75 17.125 C11.97103281 18.46511252 12.19367021 19.80496145 12.41796875 21.14453125 C12.96112917 24.42710947 13.48260388 27.71326237 14 31 C15.65 27.04 17.3 23.08 19 19 C20.02528766 23.10115062 19.8925762 24.65109717 18.875 28.625 C18.64554687 29.58664063 18.41609375 30.54828125 18.1796875 31.5390625 C17 34 17 34 14.46484375 35.140625 C13.65144531 35.42421875 12.83804687 35.7078125 12 36 C10.62810173 39.02982306 10.62810173 39.02982306 10 42 C10.99 42 11.98 42 13 42 C13 42.66 13 43.32 13 44 C13.99 44 14.98 44 16 44 C16.12375 43.2575 16.2475 42.515 16.375 41.75 C16.95486701 39.19858515 17.73708739 37.2732427 19 35 C19.66 35.33 20.32 35.66 21 36 C19.02 40.95 19.02 40.95 17 46 C13.625 45.75 13.625 45.75 10 45 C6.18810093 39.35941963 5.64280901 30.60803339 6 24 C8.09350689 27.4019487 8.17942163 30.05272412 8 34 C9.485 33.505 9.485 33.505 11 33 C11.27373086 26.8410556 10.42182178 20.99863496 9 15 C8.67 14.67 8.34 14.34 8 14 C7.76807135 12.48530552 7.58784762 10.96245438 7.4375 9.4375 C7.35371094 8.61121094 7.26992188 7.78492188 7.18359375 6.93359375 C7.12300781 6.29550781 7.06242187 5.65742188 7 5 C4.03 4.505 4.03 4.505 1 4 C0.34 5.65 -0.32 7.3 -1 9 C-1.66 8.67 -2.32 8.34 -3 8 C-2.01 5.36 -1.02 2.72 0 0 Z " fill="#EC9D6B" transform="translate(299,132)"/>
<path d="M0 0 C1.04929687 -0.01417969 2.09859375 -0.02835938 3.1796875 -0.04296875 C6.06047071 0.18245063 7.68740208 0.69785683 10.125 2.1875 C10.125 3.1775 10.125 4.1675 10.125 5.1875 C11.445 5.5175 12.765 5.8475 14.125 6.1875 C15.88278189 12.04677297 16.43048672 19.57479171 14.3359375 25.37109375 C13.3125 27 13.3125 27 11.125 29.1875 C10.135 29.1875 9.145 29.1875 8.125 29.1875 C6.78518514 29.4937434 5.44988113 29.82201555 4.125 30.1875 C4.455 29.1975 4.785 28.2075 5.125 27.1875 C5.785 27.1875 6.445 27.1875 7.125 27.1875 C7.41375 26.424375 7.7025 25.66125 8 24.875 C9.125 22.1875 9.125 22.1875 11.125 19.1875 C11.95685547 16.50462838 12.38628804 13.99350635 12.125 11.1875 C9.78420243 8.83102999 9.78420243 8.83102999 7.125 7.1875 C7.125 6.1975 7.125 5.2075 7.125 4.1875 C2.175 4.1875 -2.775 4.1875 -7.875 4.1875 C-7.875 3.1975 -7.875 2.2075 -7.875 1.1875 C-5.17835792 -0.16082104 -3.00912479 0.01839318 0 0 Z " fill="#F9914D" transform="translate(372.875,186.8125)"/>
<path d="M0 0 C0.66 0 1.32 0 2 0 C5.78432064 16.45084842 5.78432064 16.45084842 1.73046875 23.07421875 C0.24917337 24.86302354 -1.28460818 26.4369907 -3 28 C-3.639375 28.61875 -4.27875 29.2375 -4.9375 29.875 C-7.86344139 31.47096803 -10.71456922 31.68409319 -14 32 C-12.87548273 29.0280615 -11.77706209 26.66559313 -10 24 C-9.01 24 -8.02 24 -7 24 C-7 23.34 -7 22.68 -7 22 C-6.01 22 -5.02 22 -4 22 C-4.061875 20.8553125 -4.061875 20.8553125 -4.125 19.6875 C-4 17 -4 17 -2 14 C-1.55058745 11.61700383 -1.18393057 9.21774516 -0.875 6.8125 C-0.70742188 5.54019531 -0.53984375 4.26789063 -0.3671875 2.95703125 C-0.24601562 1.98121094 -0.12484375 1.00539063 0 0 Z " fill="#FBBB5C" transform="translate(344,297)"/>
<path d="M0 0 C4.23507124 0.12173427 6.42592249 1.06833703 9.32421875 4.01953125 C10.45950708 5.27112385 11.58032173 6.53597349 12.6875 7.8125 C13.25533203 8.44220703 13.82316406 9.07191406 14.40820312 9.72070312 C22 18.20251136 22 18.20251136 22 21 C18.75 21.3125 18.75 21.3125 15 21 C12.9375 18.6875 12.9375 18.6875 11 16 C9.989375 15.505 8.97875 15.01 7.9375 14.5 C4.49025178 12.73970304 3.48337262 11.54361237 2 8 C1.8125 4.6875 1.8125 4.6875 2 2 C1.34 2 0.68 2 0 2 C0 1.34 0 0.68 0 0 Z " fill="#F39659" transform="translate(193,146)"/>
<path d="M0 0 C0.33 0.66 0.66 1.32 1 2 C-6.42857143 3.28571429 -6.42857143 3.28571429 -10 2 C-10 4.31 -10 6.62 -10 9 C-10.99 8.34 -11.98 7.68 -13 7 C-14.40187289 9.80374579 -13.90114275 11.89525985 -13.625 15 C-13.48964844 16.60875 -13.48964844 16.60875 -13.3515625 18.25 C-13.1593822 20.95638728 -13.1593822 20.95638728 -12 23 C-11.77141886 25.0374763 -11.58975722 27.08040303 -11.4375 29.125 C-11.35371094 30.22070312 -11.26992187 31.31640625 -11.18359375 32.4453125 C-11.12300781 33.28835937 -11.06242188 34.13140625 -11 35 C-10.01 34.34 -9.02 33.68 -8 33 C-7.63501966 30.10391601 -7.63501966 30.10391601 -7.8125 26.875 C-7.83957031 25.77929688 -7.86664063 24.68359375 -7.89453125 23.5546875 C-7.94673828 22.29011719 -7.94673828 22.29011719 -8 21 C-7.67 21 -7.34 21 -7 21 C-5.80911014 26.38027025 -4.7080481 31.45291384 -5 37 C-8.465 37.495 -8.465 37.495 -12 38 C-13.64726481 31.8693101 -14.74153231 25.78343855 -15.625 19.5 C-15.82609375 18.15228516 -15.82609375 18.15228516 -16.03125 16.77734375 C-16.78998522 11.45845503 -17.13806227 6.37187755 -17 1 C-11.33357449 -0.22517308 -5.76291482 -0.09228867 0 0 Z " fill="#F39356" transform="translate(229,129)"/>
<path d="M0 0 C4.42715523 0.0556375 6.91853233 1.40338485 10.3125 4.3125 C12.04729167 6.42442029 12.35051249 7.6308968 12.19921875 10.34375 C11.96358994 12.34131959 11.6431752 14.32844882 11.3125 16.3125 C10.9825 16.3125 10.6525 16.3125 10.3125 16.3125 C9.8175 11.8575 9.8175 11.8575 9.3125 7.3125 C7.9925 7.6425 6.6725 7.9725 5.3125 8.3125 C4.9825 7.6525 4.6525 6.9925 4.3125 6.3125 C3.3225 5.6525 2.3325 4.9925 1.3125 4.3125 C0.9825 3.6525 0.6525 2.9925 0.3125 2.3125 C-0.01968192 5.31509517 -0.01968192 5.31509517 1.8125 7 C2.3075 7.433125 2.8025 7.86625 3.3125 8.3125 C2.508125 8.333125 1.70375 8.35375 0.875 8.375 C-3.60392227 9.55366375 -6.21095469 11.79455083 -9.734375 14.71875 C-13.09969085 17.46484774 -15.36243427 17.74500657 -19.6875 17.3125 C-22.0625 15.3125 -22.0625 15.3125 -23.6875 13.3125 C-22.3675 13.3125 -21.0475 13.3125 -19.6875 13.3125 C-19.6875 13.9725 -19.6875 14.6325 -19.6875 15.3125 C-18.0375 15.3125 -16.3875 15.3125 -14.6875 15.3125 C-14.6875 14.6525 -14.6875 13.9925 -14.6875 13.3125 C-13.0375 13.3125 -11.3875 13.3125 -9.6875 13.3125 C-9.6875 11.9925 -9.6875 10.6725 -9.6875 9.3125 C-8.0375 8.9825 -6.3875 8.6525 -4.6875 8.3125 C-4.3575 6.9925 -4.0275 5.6725 -3.6875 4.3125 C-5.6675 4.9725 -7.6475 5.6325 -9.6875 6.3125 C-3.6875 0.3125 -3.6875 0.3125 0 0 Z " fill="#EF9A64" transform="translate(134.6875,197.6875)"/>
<path d="M0 0 C0.66 0.33 1.32 0.66 2 1 C0.94425781 1.67482422 0.94425781 1.67482422 -0.1328125 2.36328125 C-6.12261851 6.2652567 -11.87976429 10.3358011 -17.5 14.75 C-18.08668457 15.20930908 -18.67336914 15.66861816 -19.27783203 16.1418457 C-21.7462383 18.10167332 -24.07387224 20.07539016 -26.28125 22.328125 C-28 24 -28 24 -30 24 C-30 22.35 -30 20.7 -30 19 C-29.34 19 -28.68 19 -28 19 C-28 18.34 -28 17.68 -28 17 C-29.65 17.33 -31.3 17.66 -33 18 C-29.07447728 14.59636759 -25.07610361 12.35665539 -20.4375 10.125 C-19.01676402 9.43132345 -17.59619278 8.73730942 -16.17578125 8.04296875 C-15.12318115 7.5312915 -15.12318115 7.5312915 -14.04931641 7.00927734 C-12.13780756 6.06786948 -10.24428601 5.0992742 -8.35546875 4.11328125 C-7.28941406 3.56027344 -6.22335937 3.00726563 -5.125 2.4375 C-3.70574219 1.69306641 -3.70574219 1.69306641 -2.2578125 0.93359375 C-1.51273437 0.62550781 -0.76765625 0.31742188 0 0 Z " fill="#F4C074" transform="translate(298,194)"/>
<path d="M0 0 C11.75112948 3.24169089 22.07755061 10.07003534 32 17 C29 18 29 18 26 18 C26.33 18.99 26.66 19.98 27 21 C26.67 21.99 26.34 22.98 26 24 C25.54753906 23.42894531 25.09507812 22.85789063 24.62890625 22.26953125 C17.86760565 14.230102 9.88049931 8.29565118 1.41772461 2.14819336 C0.94987549 1.76928955 0.48202637 1.39038574 0 1 C0 0.67 0 0.34 0 0 Z " fill="#F2C073" transform="translate(164,230)"/>
<path d="M0 0 C0.99 0.33 1.98 0.66 3 1 C2.360625 1.268125 1.72125 1.53625 1.0625 1.8125 C-1.33131686 2.88667752 -1.33131686 2.88667752 -2 6 C-2.66 6 -3.32 6 -4 6 C-4.433125 7.11375 -4.433125 7.11375 -4.875 8.25 C-6 11 -6 11 -7.05859375 12.890625 C-8.1232429 15.27614591 -8.23644373 16.90153311 -8.1875 19.5 C-8.18105469 20.2528125 -8.17460937 21.005625 -8.16796875 21.78125 C-8.00303563 23.95990143 -7.59600906 25.90204811 -7 28 C-7.66 28 -8.32 28 -9 28 C-9 27.34 -9 26.68 -9 26 C-9.99 26 -10.98 26 -12 26 C-12.33 24.68 -12.66 23.36 -13 22 C-13.08159574 26.16138263 -12.98248524 29.9472484 -12 34 C-16.11655604 28.63057908 -16.88161209 24.76562985 -16 18 C-13.82418475 12.77262642 -10.17158541 8.76460146 -6 5 C-5.49082031 4.52175781 -4.98164063 4.04351562 -4.45703125 3.55078125 C-2.875 2.125 -2.875 2.125 0 0 Z " fill="#F6BF6E" transform="translate(166,284)"/>
<path d="M0 0 C0.66 0.33 1.32 0.66 2 1 C1.18917969 1.60585937 0.37835938 2.21171875 -0.45703125 2.8359375 C-14.70273361 13.46203565 -14.70273361 13.46203565 -26 27 C-26.33 27 -26.66 27 -27 27 C-27.17942163 23.05272412 -27.09350689 20.4019487 -25 17 C-23.35 17 -21.7 17 -20 17 C-20.33 16.67 -20.66 16.34 -21 16 C-21.9075 16.309375 -22.815 16.61875 -23.75 16.9375 C-26.16563338 17.7272263 -28.52780285 18.42949297 -31 19 C-27.77315977 15.43434154 -24.11436031 13.0356233 -20 10.625 C-19.34298096 10.23650879 -18.68596191 9.84801758 -18.0090332 9.44775391 C-5.62935672 2.20571047 -5.62935672 2.20571047 0 0 Z " fill="#F19862" transform="translate(331,229)"/>
<path d="M0 0 C6.27968807 1.23351016 10.75950071 3.3483755 16 7 C14.82255415 10.53233755 14.04394359 10.86308075 10.9375 12.6875 C9.83728516 13.34298828 9.83728516 13.34298828 8.71484375 14.01171875 C8.14894531 14.33785156 7.58304688 14.66398438 7 15 C5.46452525 13.59921602 3.94694852 12.17879097 2.4375 10.75 C1.59058594 9.96109375 0.74367187 9.1721875 -0.12890625 8.359375 C-2 6 -2 6 -1.83984375 3.828125 C-1.24882213 2.54162212 -0.63315025 1.26630051 0 0 Z " fill="#F89351" transform="translate(231,214)"/>
<path d="M0 0 C10.60541791 3.08351358 19.84164327 10.94887336 25.4375 20.4375 C26.27798036 24.26635499 26.64592052 28.11753152 26 32 C24.48046875 34.27734375 24.48046875 34.27734375 23 36 C23.01160156 35.29875 23.02320313 34.5975 23.03515625 33.875 C23.08971184 28.13886898 22.85618377 22.67221747 22 17 C21.34 17 20.68 17 20 17 C20.02320313 17.56847656 20.04640625 18.13695312 20.0703125 18.72265625 C20.19191688 23.92558648 19.67723492 28.07312243 18 33 C17.01 33 16.02 33 15 33 C15.48146484 32.17242187 15.48146484 32.17242187 15.97265625 31.328125 C18.10830809 26.48839688 18.00952049 20.63647093 16.125 15.71484375 C12.25226376 9.10316575 6.55194526 4.77233212 0 1 C0 0.67 0 0.34 0 0 Z " fill="#F2C47D" transform="translate(324,280)"/>
<path d="M0 0 C3.31045926 1.87592692 3.94282373 2.79630955 5 6.5625 C5.62522962 10.07625302 5.62522962 10.07625302 8.125 11.4375 C8.74375 11.623125 9.3625 11.80875 10 12 C9.01 12.33 8.02 12.66 7 13 C7 17.62 7 22.24 7 27 C5.02 27.99 5.02 27.99 3 29 C1.46450769 25.92901538 1.5573183 22.70419623 1.28125 19.3125 C1.12863953 16.97731545 1.12863953 16.97731545 0 15 C-0.25597375 12.83844393 -0.45695638 10.67016326 -0.625 8.5 C-0.72039062 7.3346875 -0.81578125 6.169375 -0.9140625 4.96875 C-1 2 -1 2 0 0 Z " fill="#FB904E" transform="translate(215,135)"/>
<path d="M0 0 C6.56443094 3.75427692 12.98503762 7.5191946 19.0625 12.03125 C20.96253797 13.20183757 20.96253797 13.20183757 23.140625 12.75390625 C25.30936372 11.87456471 26.47541964 10.75326741 28 9 C27.42655063 11.86724686 27.1385485 12.8614515 25 15 C23.68 15 22.36 15 21 15 C21 15.66 21 16.32 21 17 C18.69 17.66 16.38 18.32 14 19 C12.22776281 16.91784697 10.45717274 14.83433081 8.6875 12.75 C8.18798828 12.16347656 7.68847656 11.57695312 7.17382812 10.97265625 C0 2.51609065 0 2.51609065 0 0 Z " fill="#FDF7F0" transform="translate(142,180)"/>
<path d="M0 0 C4.03761732 1.46822448 6.54644808 4.34255815 8.75 8 C8.75 9.32 8.75 10.64 8.75 12 C9.74 12 10.73 12 11.75 12 C11.42 13.32 11.09 14.64 10.75 16 C8.28199953 14.84826645 6.70216435 13.95216435 4.75 12 C4.09 11.67 3.43 11.34 2.75 11 C2.42 11.99 2.09 12.98 1.75 14 C-0.125 13.875 -0.125 13.875 -2.25 13 C-4.13698167 8.94298942 -4.46117043 5.43457902 -4.25 1 C-2.25 0 -2.25 0 0 0 Z " fill="#FA904D" transform="translate(158.25,154)"/>
<path d="M0 0 C0.99 0.33 1.98 0.66 3 1 C3 1.99 3 2.98 3 4 C4.175625 4.4640625 4.175625 4.4640625 5.375 4.9375 C8 6 8 6 10 7 C10 7.99 10 8.98 10 10 C8.68 10 7.36 10 6 10 C6 11.32 6 12.64 6 14 C3.375 14.9375 3.375 14.9375 0 15 C-2.55163903 13.05106599 -4.53236637 10.86102899 -6 8 C-5.70279533 4.74894487 -5.04236717 4.04125224 -2.625 1.6875 C-1.75875 1.130625 -0.8925 0.57375 0 0 Z " fill="#FC904C" transform="translate(135,169)"/>
<path d="M0 0 C0.66 0.99 1.32 1.98 2 3 C1.67 3.99 1.34 4.98 1 6 C0.01 5.67 -0.98 5.34 -2 5 C-2 5.66 -2 6.32 -2 7 C-2.78375 7.61875 -3.5675 8.2375 -4.375 8.875 C-6.86229156 10.88852174 -7.85538266 12.08642859 -9 15 C-7.02 14.67 -5.04 14.34 -3 14 C-10.66633939 20.18985921 -20.29870348 24.4946264 -30 26 C-27.68118495 23.32098068 -25.68185532 22.33795597 -22.3125 21.3125 C-21.50425781 21.06113281 -20.69601562 20.80976563 -19.86328125 20.55078125 C-19.24839844 20.36902344 -18.63351562 20.18726563 -18 20 C-18 19.34 -18 18.68 -18 18 C-17.01 17.67 -16.02 17.34 -15 17 C-15 16.34 -15 15.68 -15 15 C-16.32 14.67 -17.64 14.34 -19 14 C-17.08424874 12.87344187 -15.16736281 11.74881313 -13.25 10.625 C-12.18265625 9.99851562 -11.1153125 9.37203125 -10.015625 8.7265625 C-7 7 -7 7 -4.68359375 5.90234375 C-2.4406586 4.70021378 -1.9645289 3.30003045 -1 1 C-0.67 0.67 -0.34 0.34 0 0 Z " fill="#F3C173" transform="translate(339,314)"/>
<path d="M0 0 C-0.99 0.66 -1.98 1.32 -3 2 C-3 2.66 -3 3.32 -3 4 C1.95 3.67 6.9 3.34 12 3 C9.22837166 4.84775223 8.13386954 5.33378618 5.015625 5.8515625 C3.85933594 6.04492188 3.85933594 6.04492188 2.6796875 6.2421875 C1.87789063 6.36851562 1.07609375 6.49484375 0.25 6.625 C-0.53632813 6.7590625 -1.32265625 6.893125 -2.1328125 7.03125 C-6.81943753 7.79418896 -11.25329595 8.13960894 -16 8 C-16 7.34 -16 6.68 -16 6 C-13.69 6 -11.38 6 -9 6 C-9 5.01 -9 4.02 -9 3 C-9.95519531 3.10828125 -9.95519531 3.10828125 -10.9296875 3.21875 C-23.25654761 4.3958507 -35.63084516 4.09002296 -48 4 C-48 3.67 -48 3.34 -48 3 C-47.35675781 2.98018066 -46.71351563 2.96036133 -46.05078125 2.93994141 C-34.43282004 2.56496798 -22.94158669 2.13047958 -11.4375 0.40234375 C-7.57316587 -0.04995899 -3.88785582 -0.063945 0 0 Z " fill="#F2C176" transform="translate(288,339)"/>
<path d="M0 0 C0.66 0.33 1.32 0.66 2 1 C0.87994369 4.36016893 -0.37211797 5.69064913 -3 8 C-3.66 8 -4.32 8 -5 8 C-4.34 9.65 -3.68 11.3 -3 13 C-2.01 11.35 -1.02 9.7 0 8 C0.99 8.33 1.98 8.66 3 9 C2.69964844 9.50789062 2.39929688 10.01578125 2.08984375 10.5390625 C0.18359389 13.98969783 -1.01454626 16.24359438 -0.9375 20.25 C0.00569062 23.01669248 1.07200619 24.82052873 3 27 C1.02 26.67 -0.96 26.34 -3 26 C-3.12375 25.05125 -3.2475 24.1025 -3.375 23.125 C-3.71687177 19.91332809 -3.71687177 19.91332809 -6 18 C-6.33 18 -6.66 18 -7 18 C-7.33 19.65 -7.66 21.3 -8 23 C-7.34 23 -6.68 23 -6 23 C-5.67 24.65 -5.34 26.3 -5 28 C-7 26.6875 -7 26.6875 -9 24 C-10.50031485 16.55991408 -8.68542168 11.29930804 -4.60546875 5.09375 C-3.17588129 3.22937317 -1.71187726 1.60392104 0 0 Z " fill="#F09A64" transform="translate(333,160)"/>
<path d="M0 0 C1.051875 -0.02126953 1.051875 -0.02126953 2.125 -0.04296875 C4 0.1875 4 0.1875 6 2.1875 C6.25 5.1875 6.25 5.1875 6 8.1875 C3.60236815 10.58513185 2.66726502 10.53030586 -0.625 10.8125 C-1.44226563 10.88726562 -2.25953125 10.96203125 -3.1015625 11.0390625 C-3.72804687 11.08804688 -4.35453125 11.13703125 -5 11.1875 C-6.60725635 7.97298731 -6.05748185 4.75137464 -6 1.1875 C-3.77109005 0.07304502 -2.46944894 0.02269714 0 0 Z " fill="#FDF9F3" transform="translate(226,132.8125)"/>
<path d="M0 0 C2.6465335 2.6465335 3.59941997 5.56221264 5 9 C7.37374861 9.33425735 7.37374861 9.33425735 10 9 C11.6083124 7.13344768 11.6083124 7.13344768 13 5 C15.65903784 3.33810135 16.80366562 3 20 3 C19.67 4.65 19.34 6.3 19 8 C17.35 8 15.7 8 14 8 C14 9.32 14 10.64 14 12 C12.35 12 10.7 12 9 12 C9 12.66 9 13.32 9 14 C7.35 14 5.7 14 4 14 C4 13.34 4 12.68 4 12 C2.68 12 1.36 12 0 12 C-1.95143115 9.13024831 -1.98930952 7.87385237 -1.6875 4.3125 C-1 1 -1 1 0 0 Z " fill="#F9914E" transform="translate(111,199)"/>
<path d="M0 0 C0.33 0 0.66 0 1 0 C1.25 5.625 1.25 5.625 -1 9 C-1.24107326 11.28648848 -1.24107326 11.28648848 -1.125 13.6875 C-1.10695313 14.49574219 -1.08890625 15.30398437 -1.0703125 16.13671875 C-1.04710937 16.75160156 -1.02390625 17.36648437 -1 18 C-0.34 18 0.32 18 1 18 C0.01 20.97 -0.98 23.94 -2 27 C-4.31 26.67 -6.62 26.34 -9 26 C-8.38443385 20.11792344 -6.17339219 15.03902565 -3.9375 9.625 C-3.56044922 8.69816406 -3.18339844 7.77132812 -2.79492188 6.81640625 C-1.86873604 4.54197521 -0.93697332 2.27000333 0 0 Z " fill="#F6965B" transform="translate(295,142)"/>
<path d="M0 0 C6.30426141 0.60040585 11.76123922 2.57539191 15.9375 7.5 C18.94743245 11.8267779 19.03517544 14.10052609 18.9375 19.375 C16.6275 19.375 14.3175 19.375 11.9375 19.375 C11.44921875 17.35677083 10.9609375 15.33854167 10.47265625 13.3203125 C9.98903008 11.3164343 9.98903008 11.3164343 8.9375 9.375 C10.2575 9.045 11.5775 8.715 12.9375 8.375 C12.6075 7.385 12.2775 6.395 11.9375 5.375 C10.12453385 4.75407282 10.12453385 4.75407282 7.9375 4.375 C7.195 4.024375 6.4525 3.67375 5.6875 3.3125 C1.96606013 2.04382732 -1.13993488 2.24203169 -5.0625 2.375 C-3.0625 0.375 -3.0625 0.375 0 0 Z " fill="#EF9960" transform="translate(343.0625,155.625)"/>
<path d="M0 0 C11.34679554 1.23448933 22.67865987 2.5501281 34 4 C34 4.33 34 4.66 34 5 C27.07 5 20.14 5 13 5 C13 5.33 13 5.66 13 6 C5.93290796 7.40426019 -0.13725421 6.83835779 -7.0625 5.1875 C-8.18773071 4.92114746 -8.18773071 4.92114746 -9.33569336 4.64941406 C-14.72149485 3.27850515 -14.72149485 3.27850515 -17 1 C-13.37 1.33 -9.74 1.66 -6 2 C-6 2.66 -6 3.32 -6 4 C-2.37 4.33 1.26 4.66 5 5 C5 4.34 5 3.68 5 3 C3.35 2.34 1.7 1.68 0 1 C0 0.67 0 0.34 0 0 Z " fill="#F1C277" transform="translate(202,337)"/>
<path d="M0 0 C4.94408744 2.70200128 9.06376421 6.94129264 10.875 12.375 C11.40265762 17.96817079 10.40949844 21.50096455 7.875 26.375 C7.215 26.705 6.555 27.035 5.875 27.375 C6.205 26.385 6.535 25.395 6.875 24.375 C6.97004628 22.23086777 7.00487226 20.0837323 7 17.9375 C7.00257813 16.80441406 7.00515625 15.67132813 7.0078125 14.50390625 C6.88061707 10.83962812 6.88061707 10.83962812 5.875 7.375 C4.885 7.045 3.895 6.715 2.875 6.375 C2.875 5.385 2.875 4.395 2.875 3.375 C-4.1225717 2.18392397 -11.17407366 1.58121256 -18.125 3.375 C-12.95967794 -2.30685427 -7.04484644 -3.19011914 0 0 Z " fill="#EDA070" transform="translate(380.125,185.625)"/>
<path d="M0 0 C1.98 0.99 1.98 0.99 4 2 C3.98839844 2.83144531 3.97679687 3.66289062 3.96484375 4.51953125 C3.95582031 5.60621094 3.94679687 6.69289062 3.9375 7.8125 C3.92589844 8.89144531 3.91429687 9.97039062 3.90234375 11.08203125 C3.86375234 14.06512169 3.86375234 14.06512169 5 17 C5.06740865 18.56118428 5.08514456 20.1250252 5.0625 21.6875 C5.05347656 22.49574219 5.04445312 23.30398437 5.03515625 24.13671875 C5.02355469 24.75160156 5.01195312 25.36648437 5 26 C3.68 26 2.36 26 1 26 C-0.30475618 23.39048764 -0.11301572 21.47298715 -0.09765625 18.5546875 C-0.09443359 17.47832031 -0.09121094 16.40195313 -0.08789062 15.29296875 C-0.07951172 14.16503906 -0.07113281 13.03710938 -0.0625 11.875 C-0.05798828 10.73933594 -0.05347656 9.60367188 -0.04882812 8.43359375 C-0.03701615 5.62234362 -0.02054507 2.8111977 0 0 Z " fill="#FA914D" transform="translate(183,151)"/>
<path d="M0 0 C0.33 0 0.66 0 1 0 C1 1.98 1 3.96 1 6 C1.99 6 2.98 6 4 6 C4 6.66 4 7.32 4 8 C4.66 8 5.32 8 6 8 C7.2890625 9.6796875 7.2890625 9.6796875 8.625 11.875 C9.29402344 12.95394531 9.29402344 12.95394531 9.9765625 14.0546875 C11 16 11 16 11 18 C8 19 8 19 4.4375 17.4375 C1.76767921 15.79280028 1.04272987 15.08360191 -0.4375 12.1875 C-1.91304348 3.82608696 -1.91304348 3.82608696 0 0 Z " fill="#FABB5A" transform="translate(153,304)"/>
<path d="M0 0 C0.61875 0.825 1.2375 1.65 1.875 2.5 C2.57625 3.325 3.2775 4.15 4 5 C4.66 5 5.32 5 6 5 C6.66 4.34 7.32 3.68 8 3 C9.34813187 4.54974981 10.6780343 6.11537065 12 7.6875 C13.11375 8.99267578 13.11375 8.99267578 14.25 10.32421875 C16.15423648 13.23583033 16.39190361 14.60146088 16 18 C10.66014274 16.73158816 7.94633566 14.30928087 4.625 10.125 C4.17511719 9.59519531 3.72523438 9.06539062 3.26171875 8.51953125 C0.65926319 5.33172095 0 4.25995998 0 0 Z " fill="#F89250" transform="translate(163,164)"/>
<path d="M0 0 C1.79942675 2.00003852 3.39847811 3.97436064 5 6.125 C5.9749784 7.40125715 6.95024788 8.67729199 7.92578125 9.953125 C8.42803223 10.61634766 8.9302832 11.27957031 9.44775391 11.96289062 C11.98871421 15.29755133 14.5902796 18.58410674 17.1875 21.875 C18.11877862 23.05966868 19.04979514 24.24454347 19.98046875 25.4296875 C20.64691406 26.27789062 21.31335938 27.12609375 22 28 C21.1328125 29.953125 21.1328125 29.953125 20 32 C17.875 32.75 17.875 32.75 16 33 C15.34 31.68 14.68 30.36 14 29 C15.65 29.66 17.3 30.32 19 31 C17.6163832 25.00432721 14.17146456 20.4130193 10 16 C9.01 15.67 8.02 15.34 7 15 C6.33333333 13.33333333 5.66666667 11.66666667 5 10 C3.50968032 7.52561428 2.14993084 6.05220671 0 4 C-3.19833907 3.65776386 -3.19833907 3.65776386 -6 5 C-7.43637698 6.95163118 -7.43637698 6.95163118 -8 9 C-8.3125 6.75 -8.3125 6.75 -8 4 C-5.22028536 1.22028536 -3.98855034 0 0 0 Z " fill="#EAA073" transform="translate(160,151)"/>
<path d="M0 0 C3.05001831 3.66002197 7 9.07851471 7 14 C6.34 14 5.68 14 5 14 C5.33 14.99 5.66 15.98 6 17 C6.22800687 20.26682113 6.18515978 23.53853257 6.1875 26.8125 C6.19974609 27.70259766 6.21199219 28.59269531 6.22460938 29.50976562 C6.23541636 34.3693068 6.06688738 38.49636118 4 43 C3.01 43.495 3.01 43.495 2 44 C2.495 42.2984375 2.495 42.2984375 3 40.5625 C5.44062138 29.38516152 5.18446301 18.26998588 0 8 C-0.6872487 6.00697876 -1.36515933 4.01032877 -2 2 C-1.34 1.34 -0.68 0.68 0 0 Z " fill="#FEEEDD" transform="translate(288,256)"/>
<path d="M0 0 C3.26008643 3.16952847 6.22237877 6.39937989 9 10 C8.25 11.9375 8.25 11.9375 7 14 C5.68 14.33 4.36 14.66 3 15 C0.69 12.03 -1.62 9.06 -4 6 C-2.68 5.67 -1.36 5.34 0 5 C0 3.35 0 1.7 0 0 Z " fill="#EC9D6A" transform="translate(148,189)"/>
<path d="M0 0 C3.54386609 1.77193305 4.84126206 2.62897902 7.25 5.5 C8.03117188 6.41265625 8.03117188 6.41265625 8.828125 7.34375 C10 9 10 9 10 11 C3.375 14 3.375 14 0 14 C0 9.38 0 4.76 0 0 Z " fill="#FDF8F1" transform="translate(188,147)"/>
<path d="M0 0 C0.33 0.66 0.66 1.32 1 2 C1.66 2.33 2.32 2.66 3 3 C2.66226563 3.60585938 2.32453125 4.21171875 1.9765625 4.8359375 C-4.47704603 16.95976855 -5.57958823 28.7683078 -2 42 C-2.66 42 -3.32 42 -4 42 C-5.70677712 36.81193938 -6.31176856 32.3209282 -6.25 26.875 C-6.25773438 26.18535156 -6.26546875 25.49570312 -6.2734375 24.78515625 C-6.25800428 20.74936841 -5.78005624 17.63074964 -4 14 C-4.66 13.67 -5.32 13.34 -6 13 C-5.37619308 11.58280758 -4.7508997 10.1662694 -4.125 8.75 C-3.77695313 7.96109375 -3.42890625 7.1721875 -3.0703125 6.359375 C-2.09586095 4.21131392 -1.07013571 2.10170798 0 0 Z " fill="#FEF7E1" transform="translate(207,256)"/>
<path d="M0 0 C4.54109672 4.26587874 8.24735246 9.03612328 12 14 C11.01 14.33 10.02 14.66 9 15 C8.67 17.31 8.34 19.62 8 22 C5.67899838 18.51849756 4.32324845 14.89433316 2.875 11 C2.59785156 10.27554688 2.32070312 9.55109375 2.03515625 8.8046875 C0.88904289 5.74462128 0 3.29457901 0 0 Z " fill="#FEF8EF" transform="translate(161,165)"/>
<path d="M0 0 C0.66 0.66 1.32 1.32 2 2 C1.69041608 7.26292658 0.20481515 11.30278511 -2 16 C-2.99 16 -3.98 16 -5 16 C-5 15.34 -5 14.68 -5 14 C-5.99 14 -6.98 14 -8 14 C-8.36275695 9.52599758 -8.36275695 9.52599758 -6.75 7.1875 C-5 6 -5 6 -1 6 C-1.020625 5.195625 -1.04125 4.39125 -1.0625 3.5625 C-1 1 -1 1 0 0 Z " fill="#FB904A" transform="translate(317,160)"/>
<path d="M0 0 C0.66 0.33 1.32 0.66 2 1 C1.25556641 2.14662109 1.25556641 2.14662109 0.49609375 3.31640625 C-4.13592432 10.62040438 -8.02699675 17.98861279 -11.5546875 25.8828125 C-13 29 -13 29 -15 32 C-14.48594831 27.03083364 -13.76615118 22.70973649 -12 18 C-11.34 18 -10.68 18 -10 18 C-9.7834375 17.1028125 -9.7834375 17.1028125 -9.5625 16.1875 C-9.1127561 14.43849596 -8.57107659 12.71322977 -8 11 C-7.34 11 -6.68 11 -6 11 C-6 10.01 -6 9.02 -6 8 C-5.34 8 -4.68 8 -4 8 C-4 6.68 -4 5.36 -4 4 C-4.66 3.67 -5.32 3.34 -6 3 C-4.68 3 -3.36 3 -2 3 C-2 2.34 -2 1.68 -2 1 C-1.34 0.67 -0.68 0.34 0 0 Z " fill="#F1C177" transform="translate(239,248)"/>
<path d="M0 0 C0.66 0 1.32 0 2 0 C3.91610155 6.64248536 4.56367091 13.11059329 5 20 C5.99 19.34 6.98 18.68 8 18 C8.36498034 15.10391601 8.36498034 15.10391601 8.1875 11.875 C8.16042969 10.77929688 8.13335937 9.68359375 8.10546875 8.5546875 C8.05326172 7.29011719 8.05326172 7.29011719 8 6 C8.33 6 8.66 6 9 6 C10.19088986 11.38027025 11.2919519 16.45291384 11 22 C8.69 22.33 6.38 22.66 4 23 C2.011901 15.47362521 0 7.8146017 0 0 Z " fill="#EBA170" transform="translate(213,144)"/>
<path d="M0 0 C1.10929733 3.32789199 0.81868189 3.78432723 0 7 C-0.08173345 9.24353937 -0.10750277 11.48936892 -0.09765625 13.734375 C-0.09443359 15.02988281 -0.09121094 16.32539063 -0.08789062 17.66015625 C-0.07953598 19.02343817 -0.07107104 20.38671942 -0.0625 21.75 C-0.05748168 23.12890465 -0.05291935 24.50781104 -0.04882812 25.88671875 C-0.03704093 29.25785659 -0.02058635 32.62890628 0 36 C-1.98 34.68 -3.96 33.36 -6 32 C-5.34 31.67 -4.68 31.34 -4 31 C-3.34 31.33 -2.68 31.66 -2 32 C-2.33 31.01 -2.66 30.02 -3 29 C-3.25640902 25.42115174 -3.23136588 21.83706812 -3.25 18.25 C-3.270625 17.27289063 -3.29125 16.29578125 -3.3125 15.2890625 C-3.34432172 9.38613309 -2.77707109 5.23258658 0 0 Z " fill="#EFBF72" transform="translate(222,283)"/>
<path d="M0 0 C0.66 0.33 1.32 0.66 2 1 C1.0479279 2.00596297 0.08812654 3.00461563 -0.875 4 C-1.40867187 4.556875 -1.94234375 5.11375 -2.4921875 5.6875 C-4 7 -4 7 -6 7 C-5.34 8.98 -4.68 10.96 -4 13 C-3.34 13 -2.68 13 -2 13 C-2 14.32 -2 15.64 -2 17 C-1.34 17 -0.68 17 0 17 C0 15.68 0 14.36 0 13 C0.66 13 1.32 13 2 13 C1.67 12.01 1.34 11.02 1 10 C1.66 9.01 2.32 8.02 3 7 C4.32 7.33 5.64 7.66 7 8 C6.06811119 9.6074328 5.12925565 11.21082799 4.1875 12.8125 C3.40439453 14.15248047 3.40439453 14.15248047 2.60546875 15.51953125 C1.21467801 17.66831987 -0.1122066 19.29361617 -2 21 C-3.06092734 19.09392715 -4.09820101 17.17467254 -5.125 15.25 C-5.70507812 14.18265625 -6.28515625 13.1153125 -6.8828125 12.015625 C-8 9 -8 9 -7.375 6.78125 C-5.23337616 4.00687366 -2.75830774 2.15867562 0 0 Z " fill="#E89F6F" transform="translate(297,249)"/>
<path d="M0 0 C0.66 0.33 1.32 0.66 2 1 C2 1.66 2 2.32 2 3 C4.95481492 5.74375671 5.77471908 6 10 6 C10.22893297 9.03336186 10.36475845 11.97465051 10 15 C8 17.0625 8 17.0625 6 18 C5.90203125 17.39671875 5.8040625 16.7934375 5.703125 16.171875 C4.78418097 11.26027759 4.10077245 8.20372848 0 5 C-0.66 4.34 -1.32 3.68 -2 3 C-1.34 2.01 -0.68 1.02 0 0 Z " fill="#F79151" transform="translate(135,199)"/>
<path d="M0 0 C3.63 0 7.26 0 11 0 C11 0.33 11 0.66 11 1 C7.7 1 4.4 1 1 1 C1.00523682 1.86802246 1.01047363 2.73604492 1.01586914 3.63037109 C1.03289862 6.84700273 1.04544408 10.06361141 1.05493164 13.28027344 C1.0599643 14.67318477 1.06679098 16.0660908 1.07543945 17.45898438 C1.08755152 19.45961246 1.09270412 21.46027888 1.09765625 23.4609375 C1.10289307 24.66540527 1.10812988 25.86987305 1.11352539 27.11083984 C1 30 1 30 0 32 C-2.97 32 -5.94 32 -9 32 C-9 31.67 -9 31.34 -9 31 C-6.69 31 -4.38 31 -2 31 C-1.01 15.655 -1.01 15.655 0 0 Z " fill="#FCE7D2" transform="translate(264,132)"/>
<path d="M0 0 C0.66 0 1.32 0 2 0 C4.32590854 3.63423209 4.16265833 6.77088331 4 11 C2.25 11.75 2.25 11.75 0 12 C-2.76266666 9.94773334 -3.8405398 8.58468741 -4.75 5.25 C-4.8325 4.5075 -4.915 3.765 -5 3 C-4.01 3 -3.02 3 -2 3 C-1.34 2.01 -0.68 1.02 0 0 Z " fill="#F9924F" transform="translate(163,182)"/>
<path d="M0 0 C1.875 0.625 1.875 0.625 4 2 C5.3125 5 5.3125 5 6 8 C5.67 8.66 5.34 9.32 5 10 C7.97 10.495 7.97 10.495 11 11 C11 11.66 11 12.32 11 13 C11.99 13.33 12.98 13.66 14 14 C14 14.33 14 14.66 14 15 C9.39611104 15.32120156 6.61079257 14.99179956 3 12 C2.1875 9.3125 2.1875 9.3125 2 7 C1.34 7 0.68 7 0 7 C0 4.69 0 2.38 0 0 Z " fill="#F9904E" transform="translate(325,176)"/>
<path d="M0 0 C2.31 0.33 4.62 0.66 7 1 C6.29807915 5.93321834 4.36469225 10.25974682 2.4375 14.8125 C2.10814453 15.60076172 1.77878906 16.38902344 1.43945312 17.20117188 C0.63041094 19.13583796 -0.18423852 21.06815753 -1 23 C-2.21065165 19.36804504 -1.62784815 17.93468371 -0.5625 14.3125 C-0.27503906 13.31863281 0.01242187 12.32476562 0.30859375 11.30078125 C0.53675781 10.54152344 0.76492188 9.78226563 1 9 C1.66 9 2.32 9 3 9 C3.144375 8.38125 3.28875 7.7625 3.4375 7.125 C4 5 4 5 5 3 C1.88214887 3.64644661 1.88214887 3.64644661 1 6 C0.34 6 -0.32 6 -1 6 C-1.33 6.99 -1.66 7.98 -2 9 C-2.33 8.34 -2.66 7.68 -3 7 C-2.06421005 4.64018187 -1.06652192 2.30368736 0 0 Z " fill="#E89E6E" transform="translate(322,142)"/>
<path d="M0 0 C0.99 0.33 1.98 0.66 3 1 C2.0409375 1.4021875 2.0409375 1.4021875 1.0625 1.8125 C-1.33131686 2.88667752 -1.33131686 2.88667752 -2 6 C-2.66 6 -3.32 6 -4 6 C-4.433125 7.11375 -4.433125 7.11375 -4.875 8.25 C-6 11 -6 11 -7.0625 12.8125 C-8.48460019 16.13073378 -8.64148565 19.41485649 -9 23 C-9.33 23 -9.66 23 -10 23 C-10.0270043 21.54176788 -10.04639787 20.08339325 -10.0625 18.625 C-10.07410156 17.81289063 -10.08570313 17.00078125 -10.09765625 16.1640625 C-10 14 -10 14 -9 12 C-10.65 13.32 -12.3 14.64 -14 16 C-11.56106634 8.88644349 -6.58590053 3.59722698 0 0 Z " fill="#EEC078" transform="translate(166,284)"/>
<path d="M0 0 C1.34321928 3.86175542 0.86160803 7.57327096 0.5 11.5625 C-0.02451125 16.83360225 -0.02451125 16.83360225 1 22 C0.979375 22.94875 0.95875 23.8975 0.9375 24.875 C1.00224218 28.11210902 1.80109533 30.04270181 3 33 C2.67 33.99 2.34 34.98 2 36 C1.35366725 34.22934889 0.7079517 32.45847247 0.0625 30.6875 C-0.29714844 29.70136719 -0.65679687 28.71523438 -1.02734375 27.69921875 C-4.52534201 17.99192236 -2.81568506 9.75433752 0 0 Z " fill="#F3C37D" transform="translate(205,267)"/>
<path d="M0 0 C0.99 1.0209375 0.99 1.0209375 2 2.0625 C6.6775259 6.7400259 11.67017973 11.08276016 17 15 C14.6568787 14.74438677 12.32156597 14.40729228 10 14 C9.67 13.34 9.34 12.68 9 12 C6.47266765 11.34444881 6.47266765 11.34444881 4 11 C4.33 11.99 4.66 12.98 5 14 C1.32579134 13.69381595 0.21864487 13.24228216 -2.3125 10.4375 C-2.869375 9.633125 -3.42625 8.82875 -4 8 C0.455 8.99 0.455 8.99 5 10 C4.6390625 9.44570313 4.278125 8.89140625 3.90625 8.3203125 C3.4421875 7.59585937 2.978125 6.87140625 2.5 6.125 C2.0359375 5.40570313 1.571875 4.68640625 1.09375 3.9453125 C0 2 0 2 0 0 Z " fill="#F1C479" transform="translate(159,312)"/>
<path d="M0 0 C2.3431213 0.25561323 4.67843403 0.59270772 7 1 C8.20272819 3.40545638 8.10071472 4.94996953 8.0625 7.625 C8.05347656 8.44226563 8.04445312 9.25953125 8.03515625 10.1015625 C8.02355469 10.72804687 8.01195312 11.35453125 8 12 C6.35 11.67 4.7 11.34 3 11 C2.01 7.37 1.02 3.74 0 0 Z " fill="#F39559" transform="translate(231,129)"/>
<path d="M0 0 C0.99 0.66 1.98 1.32 3 2 C-0.44615385 8.76923077 -0.44615385 8.76923077 -3.25 9.9375 C-3.8275 9.958125 -4.405 9.97875 -5 10 C-5.33 11.32 -5.66 12.64 -6 14 C-7.98 14.33 -9.96 14.66 -12 15 C-10.87548273 12.0280615 -9.77706209 9.66559313 -8 7 C-7.01 7 -6.02 7 -5 7 C-5 6.34 -5 5.68 -5 5 C-4.01 5 -3.02 5 -2 5 C-1.855625 4.360625 -1.71125 3.72125 -1.5625 3.0625 C-1 1 -1 1 0 0 Z " fill="#FABB58" transform="translate(342,314)"/>
<path d="M0 0 C0.66 0 1.32 0 2 0 C2 6.93 2 13.86 2 21 C2.99 21.33 3.98 21.66 5 22 C3.02 23.65 1.04 25.3 -1 27 C-0.67 18.09 -0.34 9.18 0 0 Z " fill="#F1935B" transform="translate(275,292)"/>
<path d="M0 0 C1.91929815 3.8385963 2.49567921 6.37564727 3.0625 10.5625 C3.51743828 13.87490183 3.94212566 16.82637698 5 20 C3.35 20 1.7 20 0 20 C0.66 19.67 1.32 19.34 2 19 C1.51789063 18.38511719 1.03578125 17.77023438 0.5390625 17.13671875 C-0.09257812 16.32847656 -0.72421875 15.52023438 -1.375 14.6875 C-2.00148437 13.88699219 -2.62796875 13.08648437 -3.2734375 12.26171875 C-4.57756718 10.55336788 -5.80781817 8.78827274 -7 7 C-5.0625 7.3125 -5.0625 7.3125 -3 8 C-2.67 8.99 -2.34 9.98 -2 11 C-1.34 11 -0.68 11 0 11 C0 7.37 0 3.74 0 0 Z " fill="#FEF1DF" transform="translate(213,148)"/>
<path d="M0 0 C2 2 2 2 2.1953125 5.9140625 C2.18200376 7.48449351 2.15813602 9.05486221 2.125 10.625 C2.11597656 11.42679688 2.10695313 12.22859375 2.09765625 13.0546875 C2.07406223 15.03658523 2.03819065 17.01832981 2 19 C0.68 19 -0.64 19 -2 19 C-2.02687279 17.18757948 -2.04633715 15.37504767 -2.0625 13.5625 C-2.07410156 12.55316406 -2.08570313 11.54382813 -2.09765625 10.50390625 C-2 8 -2 8 -1 7 C-0.63239269 4.67182036 -0.29758419 2.3381615 0 0 Z " fill="#FD914A" transform="translate(259,142)"/>
<path d="M0 0 C-0.35606691 2.58148508 -0.83328193 3.82045747 -2.625 5.75 C-5.83134123 7.43754802 -8.43348514 7.20576047 -12 7 C-12 5.68 -12 4.36 -12 3 C-10.56445975 2.49440092 -9.1264798 1.9957251 -7.6875 1.5 C-6.88699219 1.2215625 -6.08648437 0.943125 -5.26171875 0.65625 C-3 0 -3 0 0 0 Z " fill="#F59353" transform="translate(141,218)"/>
<path d="M0 0 C3.63 0 7.26 0 11 0 C11.11953999 8.7264196 10.65721694 17.30361151 10 26 C9.67 26 9.34 26 9 26 C9 18.08 9 10.16 9 2 C6.03 2 3.06 2 0 2 C0 1.34 0 0.68 0 0 Z " fill="#FDE8D3" transform="translate(246,131)"/>
<path d="M0 0 C1.32 1.32 2.64 2.64 4 4 C3.34 4 2.68 4 2 4 C1.67 5.32 1.34 6.64 1 8 C5.65499974 8.81462495 10.30976546 9.43393721 15 10 C11.24487118 12.50341922 9.59462393 12.13901553 5.2890625 11.54296875 C1.89153633 10.7370709 -0.36354971 9.25062829 -3 7 C-4.375 4.75 -4.375 4.75 -5 3 C-2.525 3.495 -2.525 3.495 0 4 C0 2.68 0 1.36 0 0 Z " fill="#EE9E6D" transform="translate(360,211)"/>
<path d="M0 0 C0.763125 0.825 1.52625 1.65 2.3125 2.5 C4.75434142 5.34055197 4.75434142 5.34055197 8 5 C8 5.66 8 6.32 8 7 C7.21238281 7.21398437 6.42476562 7.42796875 5.61328125 7.6484375 C2.7767034 8.76877637 2.7767034 8.76877637 1.85546875 11.6015625 C1.63503906 12.59929687 1.41460937 13.59703125 1.1875 14.625 C0.95417969 15.62789062 0.72085938 16.63078125 0.48046875 17.6640625 C0.32191406 18.43492187 0.16335937 19.20578125 0 20 C-0.99 20 -1.98 20 -3 20 C-2.484375 18.989375 -1.96875 17.97875 -1.4375 16.9375 C0.25439158 12.99507339 0.02959508 10.19757994 -1 6 C-1.95584438 3.66411677 -1.95584438 3.66411677 -3 2 C-2.01 2 -1.02 2 0 2 C0 1.34 0 0.68 0 0 Z " fill="#FDF3E3" transform="translate(146,198)"/>
<path d="M0 0 C0.99 0.33 1.98 0.66 3 1 C3.70381157 2.98723268 4.3711811 4.98777953 5 7 C5.66 7.33 6.32 7.66 7 8 C7.625 10.5625 7.625 10.5625 8 13 C6.02 13 4.04 13 2 13 C1.87625 11.88625 1.7525 10.7725 1.625 9.625 C1.3534187 5.96896323 1.3534187 5.96896323 -1 4 C-0.625 1.875 -0.625 1.875 0 0 Z " fill="#FA9050" transform="translate(235,149)"/>
<path d="M0 0 C4.84286815 1.49359485 9.31350896 3.45033567 13.875 5.625 C14.56335938 5.94984375 15.25171875 6.2746875 15.9609375 6.609375 C17.64205219 7.40323472 19.32122921 8.20119558 21 9 C20.01 9.33 19.02 9.66 18 10 C18.33 10.99 18.66 11.98 19 13 C14.75784125 11.04585743 11.19050444 8.3104156 7.4375 5.55859375 C5.14498229 3.90254378 5.14498229 3.90254378 2.75 3.47265625 C2.1725 3.31667969 1.595 3.16070312 1 3 C0.67 2.01 0.34 1.02 0 0 Z " fill="#E4AA85" transform="translate(194,193)"/>
<path d="M0 0 C0 1.98 0 3.96 0 6 C-1.32 5.67 -2.64 5.34 -4 5 C-4 5.66 -4 6.32 -4 7 C-4.66 7 -5.32 7 -6 7 C-6.99 8.485 -6.99 8.485 -8 10 C-8.99 10 -9.98 10 -11 10 C-6.18518519 0 -6.18518519 0 0 0 Z " fill="#EF9766" transform="translate(123,188)"/>
<path d="M0 0 C0.99 0.33 1.98 0.66 3 1 C2 4 2 4 1 5.9375 C0.02175093 7.95513871 -0.53164672 9.81435137 -1 12 C-1.66 12 -2.32 12 -3 12 C-3.433125 10.2984375 -3.433125 10.2984375 -3.875 8.5625 C-4.24625 7.386875 -4.6175 6.21125 -5 5 C-5.66 4.67 -6.32 4.34 -7 4 C-6.67 3.01 -6.34 2.02 -6 1 C-4.35 1.33 -2.7 1.66 -1 2 C-0.67 1.34 -0.34 0.68 0 0 Z " fill="#F9BC58" transform="translate(202,255)"/>
<path d="M0 0 C1.98 0.66 3.96 1.32 6 2 C6 2.66 6 3.32 6 4 C7.32 4.66 8.64 5.32 10 6 C10 6.66 10 7.32 10 8 C6.67465243 9.10844919 4.37817425 8.84454356 1 8 C0.34 5.69 -0.32 3.38 -1 1 C-0.67 0.67 -0.34 0.34 0 0 Z " fill="#FCBB58" transform="translate(190,246)"/>
<path d="M0 0 C1.5 1 1.5 1 3 3 C3.41906893 7.33037893 3.47965172 9.89680105 1.75 13.875 C-0.57455636 16.69767558 -2.61927919 17.81574436 -6.25390625 18.30078125 C-7.01574219 18.30464844 -7.77757812 18.30851562 -8.5625 18.3125 C-9.70912109 18.33763672 -9.70912109 18.33763672 -10.87890625 18.36328125 C-13.47897923 17.91796488 -14.34831388 16.99996498 -16 15 C-14.02 15 -12.04 15 -10 15 C-10 15.66 -10 16.32 -10 17 C-8.35 17 -6.7 17 -5 17 C-5 16.34 -5 15.68 -5 15 C-3.68 15 -2.36 15 -1 15 C-1 14.01 -1 13.02 -1 12 C-0.34 12 0.32 12 1 12 C1.19814261 5.91591528 1.19814261 5.91591528 0 0 Z " fill="#EFC177" transform="translate(217,224)"/>
<path d="M0 0 C0 0.66 0 1.32 0 2 C0.66 2 1.32 2 2 2 C2 2.66 2 3.32 2 4 C-4.03503763 5.50875941 -9.89738369 4.64186094 -16 4 C-13.36518239 2.60025314 -10.89629292 1.58775959 -8 0.875 C-7.34 0.70742188 -6.68 0.53984375 -6 0.3671875 C-4 0 -4 0 0 0 Z " fill="#F6C271" transform="translate(304,335)"/>
<path d="M0 0 C1.98 0.99 3.96 1.98 6 3 C4.46075386 7.61773842 1.13050979 8.57414504 -3 11 C-5.31 8.69 -7.62 6.38 -10 4 C-7 4 -7 4 -5.3125 5.5 C-4.879375 5.995 -4.44625 6.49 -4 7 C-0.75016865 5.91215032 -0.75016865 5.91215032 2 4 C0.68 3.34 -0.64 2.68 -2 2 C-1.34 2 -0.68 2 0 2 C0 1.34 0 0.68 0 0 Z " fill="#ED975B" transform="translate(241,218)"/>
<path d="M0 0 C0.99 0.33 1.98 0.66 3 1 C3.33 3.64 3.66 6.28 4 9 C4.66 9 5.32 9 6 9 C6.33 10.32 6.66 11.64 7 13 C5 14 5 14 2.921875 13.4453125 C1 12 1 12 0.390625 9.1796875 C0.34421875 8.08914062 0.2978125 6.99859375 0.25 5.875 C0.19328125 4.77929688 0.1365625 3.68359375 0.078125 2.5546875 C0.05234375 1.71164063 0.0265625 0.86859375 0 0 Z " fill="#FA904D" transform="translate(354,202)"/>
<path d="M0 0 C0.66 0.33 1.32 0.66 2 1 C1.21654285 2.17219543 0.42297164 3.33763668 -0.375 4.5 C-0.81585938 5.1496875 -1.25671875 5.799375 -1.7109375 6.46875 C-2.13632812 6.9740625 -2.56171875 7.479375 -3 8 C-3.66 8 -4.32 8 -5 8 C-5 8.99 -5 9.98 -5 11 C-5.66 11 -6.32 11 -7 11 C-7 13.64 -7 16.28 -7 19 C-6.34 19 -5.68 19 -5 19 C-5 20.65 -5 22.3 -5 24 C-7 23 -7 23 -8 20 C-8.7982808 14.31098616 -8.64834968 10.18922695 -5.125 5.5 C-3.48799293 3.5703878 -1.78978407 1.78978407 0 0 Z " fill="#EB9D6C" transform="translate(360,189)"/>
<path d="M0 0 C0.66 0.33 1.32 0.66 2 1 C0.11113408 2.3225074 -1.78639839 3.63264256 -3.6875 4.9375 C-4.74324219 5.66839844 -5.79898437 6.39929688 -6.88671875 7.15234375 C-10.463005 9.27478214 -13.02448426 10.44946071 -17.1472168 9.51147461 C-17.75863525 9.34268799 -18.37005371 9.17390137 -19 9 C-15.88112823 7.46635461 -12.75402378 5.95031107 -9.625 4.4375 C-8.73554688 3.99986328 -7.84609375 3.56222656 -6.9296875 3.11132812 C-6.07890625 2.70205078 -5.228125 2.29277344 -4.3515625 1.87109375 C-3.56604004 1.48880615 -2.78051758 1.10651855 -1.97119141 0.71264648 C-1.32069824 0.47747314 -0.67020508 0.2422998 0 0 Z " fill="#ECC48A" transform="translate(298,194)"/>
<path d="M0 0 C1.98 0.66 3.96 1.32 6 2 C6 3.65 6 5.3 6 7 C2.49223216 8.60355101 -0.14354879 9.22036864 -4 9 C-2.625 7 -2.625 7 -1 5 C-0.34 5 0.32 5 1 5 C0.67 3.35 0.34 1.7 0 0 Z " fill="#F99355" transform="translate(347,179)"/>
<path d="M0 0 C5.21502137 -0.26743699 10.00521226 0.55939806 15 2 C15.33 2.33 15.66 2.66 16 3 C18.58022142 3.28221172 21.16030185 3.44820197 23.75 3.62109375 C24.86375 3.80865234 24.86375 3.80865234 26 4 C26.33 4.66 26.66 5.32 27 6 C17.39643087 5.68094455 9.12130711 3.94015147 0 1 C0 0.67 0 0.34 0 0 Z " fill="#FEF4DA" transform="translate(192,333)"/>
<path d="M0 0 C0.33 0.66 0.66 1.32 1 2 C1.66 2.33 2.32 2.66 3 3 C2.67 3.99 2.34 4.98 2 6 C1.01 6 0.02 6 -1 6 C-1.12375 6.61875 -1.2475 7.2375 -1.375 7.875 C-2 10 -2 10 -4 12 C-4.66 11.34 -5.32 10.68 -6 10 C-6 6 -6 6 -4.125 3.75 C-2 2 -2 2 0 2 C0 1.34 0 0.68 0 0 Z " fill="#FA904D" transform="translate(334,162)"/>
<path d="M0 0 C0.99 0.99 1.98 1.98 3 3 C-4.92 3 -12.84 3 -21 3 C-21.33 4.32 -21.66 5.64 -22 7 C-22 5.35 -22 3.7 -22 2 C-6.05479452 -1.06849315 -6.05479452 -1.06849315 0 0 Z " fill="#EBA071" transform="translate(233,127)"/>
<path d="M0 0 C3.63 0 7.26 0 11 0 C10.67 1.32 10.34 2.64 10 4 C6.7 4.33 3.4 4.66 0 5 C0 3.35 0 1.7 0 0 Z " fill="#FC9050" transform="translate(263,127)"/>
<path d="M0 0 C0.66 0.33 1.32 0.66 2 1 C-0.91461861 4.72423488 -2.79679593 6.89839796 -7 9 C-7.825 10.010625 -8.65 11.02125 -9.5 12.0625 C-12.01895394 15.02227088 -12.45428833 15.39151982 -16 16 C-11.17917294 10.03739811 -5.77505724 5.03320206 0 0 Z " fill="#FEF7E1" transform="translate(276,211)"/>
<path d="M0 0 C2.97 1.98 2.97 1.98 6 4 C4.40109514 9.19644079 2.25861997 14.06612142 0 19 C-0.66 17.68 -1.32 16.36 -2 15 C-1.34 15 -0.68 15 0 15 C0.33 12.03 0.66 9.06 1 6 C1.66 6 2.32 6 3 6 C3 5.34 3 4.68 3 4 C2.01 3.34 1.02 2.68 0 2 C0 1.34 0 0.68 0 0 Z " fill="#EEC683" transform="translate(201,252)"/>
<path d="M0 0 C0.33 0.66 0.66 1.32 1 2 C0.01 3.485 0.01 3.485 -1 5 C-1.66 5 -2.32 5 -3 5 C-3.20625 5.763125 -3.4125 6.52625 -3.625 7.3125 C-5.43756071 10.8552323 -7.33618653 11.62606995 -11 13 C-11.66 12.67 -12.32 12.34 -13 12 C-8.84792208 7.7373638 -4.63678779 3.73204871 0 0 Z " fill="#F3C175" transform="translate(232,234)"/>
<path d="M0 0 C2 2 2 2 2.3125 5.3125 C1.98867205 9.13366982 1.22414284 10.94180359 -1 14 C-2.24546405 11.50907189 -1.7767578 10.58919267 -1 8 C-1.99 7.67 -2.98 7.34 -4 7 C-3.67 5.68 -3.34 4.36 -3 3 C-2.34 3.33 -1.68 3.66 -1 4 C-0.67 2.68 -0.34 1.36 0 0 Z " fill="#F2C272" transform="translate(260,186)"/>
<path d="M0 0 C0.99 0.33 1.98 0.66 3 1 C4.1875 4.5625 4.1875 4.5625 5 8 C5.66 8 6.32 8 7 8 C10.44419134 17.41002278 10.44419134 17.41002278 10 22 C7.66078421 19.66078421 7.16674038 17.93341643 6.125 14.8125 C4.50075962 10.15960088 2.51401013 6.21994558 0 2 C0 1.34 0 0.68 0 0 Z " fill="#EC9C6D" transform="translate(262,259)"/>
<path d="M0 0 C1.32 0 2.64 0 4 0 C4 0.66 4 1.32 4 2 C4.5775 2.103125 5.155 2.20625 5.75 2.3125 C8.32049158 3.09792798 9.93657284 4.30504197 12 6 C7.17639811 6.19294408 3.50353262 5.75747614 -1 4 C-0.67 2.68 -0.34 1.36 0 0 Z " fill="#F89049" transform="translate(362,215)"/>
<path d="M0 0 C5.94 3.465 5.94 3.465 12 7 C11.34 7.66 10.68 8.32 10 9 C9.01 10.485 9.01 10.485 8 12 C6.66081194 10.37982158 5.3288031 8.75370657 4 7.125 C3.2575 6.22007812 2.515 5.31515625 1.75 4.3828125 C0 2 0 2 0 0 Z " fill="#FEEEDC" transform="translate(142,180)"/>
<path d="M0 0 C1.72694923 1.48874933 3.3537998 3.00957573 4.92578125 4.66015625 C4.59578125 5.32015625 4.26578125 5.98015625 3.92578125 6.66015625 C3.05953125 5.73203125 3.05953125 5.73203125 2.17578125 4.78515625 C0.03554227 2.76381943 -1.29475783 1.55939361 -4.07421875 0.66015625 C-7.00865277 0.92672197 -7.00865277 0.92672197 -10.07421875 1.66015625 C-12.07421875 1.99348958 -14.07421875 2.32682292 -16.07421875 2.66015625 C-14.07421875 -0.33984375 -14.07421875 -0.33984375 -12.44921875 -1.02734375 C-3.42803352 -2.21434181 -3.42803352 -2.21434181 0 0 Z " fill="#EEC37D" transform="translate(255.07421875,179.33984375)"/>
<path d="M0 0 C4.29298873 2.16477796 6.10498449 4.25609421 8.3125 8.5 C8.82425781 9.4590625 9.33601562 10.418125 9.86328125 11.40625 C11 14 11 14 11 17 C8.36 17 5.72 17 3 17 C3 16.67 3 16.34 3 16 C4.98 16 6.96 16 9 16 C8.67 14.35 8.34 12.7 8 11 C7.01 10.67 6.02 10.34 5 10 C3.96514123 7.68191636 2.9644586 5.34824702 2 3 C1.34 2.67 0.68 2.34 0 2 C0 1.34 0 0.68 0 0 Z " fill="#E8A074" transform="translate(234,146)"/>
<path d="M0 0 C0 3.38849114 -0.60207067 4.25465529 -2.4375 7 C-4.04312154 9.41529394 -5.07237414 11.21712243 -6 14 C-6.99 14.495 -6.99 14.495 -8 15 C-8.2165625 15.99 -8.2165625 15.99 -8.4375 17 C-8.623125 17.66 -8.80875 18.32 -9 19 C-9.99 19.33 -10.98 19.66 -12 20 C-10.57799908 14.6879276 -8.10653554 10.96086981 -4.875 6.625 C-4.40707031 5.98433594 -3.93914062 5.34367188 -3.45703125 4.68359375 C-2.31156443 3.11734319 -1.15672686 1.55795315 0 0 Z " fill="#EEC884" transform="translate(218,247)"/>
<path d="M0 0 C0.68774405 1.32258472 1.34711373 2.65986503 2 4 C2.556875 5.134375 3.11375 6.26875 3.6875 7.4375 C5.01070084 11.02904515 5.18364147 12.44907558 4 16 C3.67 16 3.34 16 3 16 C2.34 12.7 1.68 9.4 1 6 C0.01 6.33 -0.98 6.66 -2 7 C-2.6875 5.1875 -2.6875 5.1875 -3 3 C-1.5625 1.25 -1.5625 1.25 0 0 Z " fill="#EE9C69" transform="translate(164,176)"/>
<path d="M0 0 C0.99 0.33 1.98 0.66 3 1 C-0.75 4 -0.75 4 -3 4 C-3 5.32 -3 6.64 -3 8 C-2.34 8 -1.68 8 -1 8 C-0.34 10.31 0.32 12.62 1 15 C-1.33333333 12.66666667 -3.66666667 10.33333333 -6 8 C-5.89438356 4.83150669 -4.92237806 3.92442074 -2.625 1.6875 C-1.75875 1.130625 -0.8925 0.57375 0 0 Z " fill="#E49F72" transform="translate(135,169)"/>
<path d="M0 0 C2.96404505 2.80804268 5.44499019 5.18315774 7 9 C6.01 9.495 6.01 9.495 5 10 C5.33 12.31 5.66 14.62 6 17 C3.51340379 14.51340379 2.9656889 12.39516054 1.875 9.0625 C1.52179688 8.00160156 1.16859375 6.94070312 0.8046875 5.84765625 C0 3 0 3 0 0 Z " fill="#FEF1E3" transform="translate(161,165)"/>
<path d="M0 0 C0.99 0.33 1.98 0.66 3 1 C2.01 2.485 2.01 2.485 1 4 C0.68211508 6.87057251 0.68211508 6.87057251 0.75 10 C0.74226562 11.5778125 0.74226562 11.5778125 0.734375 13.1875 C0.79532983 16.20650379 0.79532983 16.20650379 3 19 C1.0625 18.1875 1.0625 18.1875 -1 17 C-2.66550691 12.00347926 -2.63421165 6.94227317 -1 1.9375 C-0.67 1.298125 -0.34 0.65875 0 0 Z " fill="#FDF1D7" transform="translate(235,182)"/>
<path d="M0 0 C6.03215654 0.5744911 10.9372973 2.61872446 15.5 6.625 C15.974375 7.2025 16.44875 7.78 16.9375 8.375 C16.6075 9.035 16.2775 9.695 15.9375 10.375 C13.9375 9 13.9375 9 11.9375 7.375 C11.9375 6.715 11.9375 6.055 11.9375 5.375 C11.1021875 5.189375 11.1021875 5.189375 10.25 5 C7.9375 4.375 7.9375 4.375 5.6875 3.3125 C1.96606013 2.04382732 -1.13993488 2.24203169 -5.0625 2.375 C-3.0625 0.375 -3.0625 0.375 0 0 Z " fill="#E79F6F" transform="translate(343.0625,155.625)"/>
<path d="M0 0 C5.28 0 10.56 0 16 0 C16 1.98 16 3.96 16 6 C12.04 6 8.08 6 4 6 C4 5.67 4 5.34 4 5 C8.455 4.505 8.455 4.505 13 4 C13.33 3.01 13.66 2.02 14 1 C9.38 1 4.76 1 0 1 C0 0.67 0 0.34 0 0 Z " fill="#E89F72" transform="translate(260,126)"/>
<path d="M0 0 C2.97 0.495 2.97 0.495 6 1 C6 2.32 6 3.64 6 5 C6.66 5.66 7.32 6.32 8 7 C5.69 6.67 3.38 6.34 1 6 C1 5.34 1 4.68 1 4 C0.34 4 -0.32 4 -1 4 C-0.67 2.68 -0.34 1.36 0 0 Z " fill="#F8BD5C" transform="translate(170,326)"/>
<path d="M0 0 C3 1 3 1 4 3 C4.203125 5.0234375 4.203125 5.0234375 4.25 7.375 C4.27578125 8.14585937 4.3015625 8.91671875 4.328125 9.7109375 C3.92541664 12.52030769 2.83696133 13.88266036 1 16 C1.01160156 15.26394531 1.02320313 14.52789062 1.03515625 13.76953125 C1.04417969 12.79371094 1.05320312 11.81789063 1.0625 10.8125 C1.07410156 9.84957031 1.08570313 8.88664062 1.09765625 7.89453125 C1.00486622 5.14423487 0.62111685 2.67520409 0 0 Z " fill="#F3C379" transform="translate(346,300)"/>
<path d="M0 0 C0.99 0.33 1.98 0.66 3 1 C3 1.66 3 2.32 3 3 C1.390625 4.515625 1.390625 4.515625 -0.75 6.25 C-4.284042 9.23889722 -6.6702844 12.02006918 -9 16 C-9 12.43966371 -8.18315784 11.4418798 -6.1875 8.5625 C-5.66542969 7.80066406 -5.14335937 7.03882813 -4.60546875 6.25390625 C-3.10221168 4.14349426 -1.56584173 2.06427783 0 0 Z " fill="#FEF5DD" transform="translate(247,240)"/>
<path d="M0 0 C1.10844919 3.32534757 0.84454356 5.62182575 0 9 C0.99 9.66 1.98 10.32 3 11 C3.66 8.36 4.32 5.72 5 3 C5.66 3 6.32 3 7 3 C6.01 5.97 5.02 8.94 4 12 C1.69 11.67 -0.62 11.34 -3 11 C-2.44894091 7.0507432 -1.61064629 3.65079826 0 0 Z " fill="#E7A275" transform="translate(289,157)"/>
<path d="M0 0 C0.99 0 1.98 0 3 0 C0.5452153 5.52326557 -2.64186529 9.17209557 -8 12 C-7.67 10.35 -7.34 8.7 -7 7 C-6.1028125 6.938125 -6.1028125 6.938125 -5.1875 6.875 C-2.64899168 6.12260099 -2.64899168 6.12260099 -1.25 2.9375 C-0.8375 1.968125 -0.425 0.99875 0 0 Z " fill="#F2C379" transform="translate(344,316)"/>
<path d="M0 0 C6.26418531 1.48362284 10.91513505 5.24162156 16 9 C15.01 10.485 15.01 10.485 14 12 C13.40832031 11.45730469 12.81664062 10.91460937 12.20703125 10.35546875 C11.41683594 9.64003906 10.62664062 8.92460937 9.8125 8.1875 C9.03519531 7.47980469 8.25789063 6.77210938 7.45703125 6.04296875 C5.08274223 4.06879839 2.65098348 2.56798845 0 1 C0 0.67 0 0.34 0 0 Z " fill="#E4CB99" transform="translate(324,280)"/>
<path d="M0 0 C1.15941038 3.47823115 0.70820884 5.45895578 0 9 C0.99 9 1.98 9 3 9 C3.33 10.98 3.66 12.96 4 15 C5.65 15.33 7.3 15.66 9 16 C7.3125 16.8125 7.3125 16.8125 5 17 C2.48814606 14.8386373 0.49018781 12.98037561 -1 10 C-1.1328125 8.125 -1.1328125 8.125 -1.125 6 C-1.12886719 4.948125 -1.12886719 4.948125 -1.1328125 3.875 C-1 2 -1 2 0 0 Z " fill="#E99D6D" transform="translate(277,225)"/>
<path d="M0 0 C1.32 0.66 2.64 1.32 4 2 C3.65021857 8.64584719 2.19522328 11.83664827 -2 17 C-3.32 16.67 -4.64 16.34 -6 16 C-5.21625 15.4225 -4.4325 14.845 -3.625 14.25 C-0.47971809 11.62102193 -0.47971809 11.62102193 1 8 C0.85317936 5.27333104 0.45050267 2.70301602 0 0 Z " fill="#EC9B6C" transform="translate(382,196)"/>
<path d="M0 0 C0.33 0.66 0.66 1.32 1 2 C-0.375 4 -0.375 4 -2 6 C-2.66 6 -3.32 6 -4 6 C-4.2475 6.721875 -4.495 7.44375 -4.75 8.1875 C-6.10983674 11.24713266 -7.82917754 13.4673738 -10 16 C-10.66 15.67 -11.32 15.34 -12 15 C-10.56547553 13.06023421 -9.12753183 11.12317069 -7.6875 9.1875 C-7.28337891 8.64029297 -6.87925781 8.09308594 -6.46289062 7.52929688 C-4.45715653 4.83867796 -2.4708702 2.27895795 0 0 Z " fill="#FDEEDB" transform="translate(313,245)"/>
<path d="M0 0 C2.125 2.375 2.125 2.375 4 5 C4.66 5.66 5.32 6.32 6 7 C3.03824877 6.38722388 1.61941217 5.74627478 -1 4 C-1 3.34 -1 2.68 -1 2 C-1.70125 2.33 -2.4025 2.66 -3.125 3 C-6.26003116 4.09044562 -8.70563182 4.15322643 -12 4 C-7.82050327 1.21366885 -5.06624674 0 0 0 Z " fill="#FDEFDA" transform="translate(204,163)"/>
<path d="M0 0 C1.98 0.99 1.98 0.99 4 2 C4 2.66 4 3.32 4 4 C3.01 4 2.02 4 1 4 C1 6.64 1 9.28 1 12 C4.465 11.505 4.465 11.505 8 11 C6 13 6 13 0 14 C0 9.38 0 4.76 0 0 Z " fill="#FEE9D4" transform="translate(188,147)"/>
<path d="M0 0 C0.33 0 0.66 0 1 0 C1.33 7.59 1.66 15.18 2 23 C0.02 21.68 -1.96 20.36 -4 19 C-3.34 18.67 -2.68 18.34 -2 18 C-1.34 18.33 -0.68 18.66 0 19 C0 12.73 0 6.46 0 0 Z " fill="#EFCF9F" transform="translate(220,296)"/>
<path d="M0 0 C0.66 0.33 1.32 0.66 2 1 C-3.445 4.96 -3.445 4.96 -9 9 C-9.33 8.34 -9.66 7.68 -10 7 C-10.66 6.67 -11.32 6.34 -12 6 C-10.04669132 4.96958487 -8.08718472 3.9509107 -6.125 2.9375 C-5.03445313 2.36902344 -3.94390625 1.80054688 -2.8203125 1.21484375 C-1.42425781 0.61349609 -1.42425781 0.61349609 0 0 Z " fill="#E1A582" transform="translate(331,229)"/>
<path d="M0 0 C2.48018753 2.48018753 2.32361558 3.38515951 2.375 6.8125 C2.31060502 10.52057752 2.0892369 11.85127184 0.125 15.125 C-2 17 -2 17 -4 17 C-3.67 15.68 -3.34 14.36 -3 13 C-2.34 13 -1.68 13 -1 13 C-1 12.01 -1 11.02 -1 10 C-0.34 10 0.32 10 1 10 C0.67 6.7 0.34 3.4 0 0 Z " fill="#EB9C6A" transform="translate(296,224)"/>
<path d="M0 0 C4.31392226 0.4793247 6.16569547 1.7457985 9 5 C7.02 5.33 5.04 5.66 3 6 C0 2.25 0 2.25 0 0 Z " fill="#F3965B" transform="translate(256,231)"/>
<path d="M0 0 C0.99 0.495 0.99 0.495 2 1 C2 1.66 2 2.32 2 3 C5.1622274 4.73169596 8.26742722 5.7128976 11.75 6.625 C12.73484375 6.88539063 13.7196875 7.14578125 14.734375 7.4140625 C15.48203125 7.60742188 16.2296875 7.80078125 17 8 C17 8.33 17 8.66 17 9 C13.04 8.67 9.08 8.34 5 8 C5 7.34 5 6.68 5 6 C3.68 5.67 2.36 5.34 1 5 C0.67 3.35 0.34 1.7 0 0 Z " fill="#FEF1E3" transform="translate(355,215)"/>
<path d="M0 0 C4.29 0 8.58 0 13 0 C12.67 0.99 12.34 1.98 12 3 C11.67 2.67 11.34 2.34 11 2 C4.55017729 1.4439808 1.36734794 2.42176804 -4 6 C-4 4.68 -4 3.36 -4 2 C-2.68 2 -1.36 2 0 2 C0 1.34 0 0.68 0 0 Z " fill="#EFA06E" transform="translate(367,191)"/>
<path d="M0 0 C0.86625 0.556875 0.86625 0.556875 1.75 1.125 C1.42 2.775 1.09 4.425 0.75 6.125 C-1.56 5.135 -3.87 4.145 -6.25 3.125 C-6.25 2.465 -6.25 1.805 -6.25 1.125 C-2.80384615 -1.09038462 -2.80384615 -1.09038462 0 0 Z " fill="#FB904B" transform="translate(204.25,155.875)"/>
<path d="M0 0 C1.98 0 3.96 0 6 0 C6 0.66 6 1.32 6 2 C6.66 2 7.32 2 8 2 C8 3.65 8 5.3 8 7 C5.69 5.02 3.38 3.04 1 1 C1 3.97 1 6.94 1 10 C0.67 10 0.34 10 0 10 C0 6.7 0 3.4 0 0 Z " fill="#F0A070" transform="translate(187,146)"/>
<path d="M0 0 C6.4 0.49230769 6.4 0.49230769 9.4375 3.0625 C10.2109375 4.0215625 10.2109375 4.0215625 11 5 C7.7 4.67 4.4 4.34 1 4 C0.67 2.68 0.34 1.36 0 0 Z " fill="#F6C16B" transform="translate(185,243)"/>
<path d="M0 0 C9.59453303 2.89066059 9.59453303 2.89066059 13 6 C12.01 6 11.02 6 10 6 C9.67 6.66 9.34 7.32 9 8 C7.49712782 6.85793642 5.99776716 5.71125043 4.5 4.5625 C3.6646875 3.92441406 2.829375 3.28632813 1.96875 2.62890625 C1.3190625 2.09136719 0.669375 1.55382812 0 1 C0 0.67 0 0.34 0 0 Z " fill="#EBC58E" transform="translate(164,230)"/>
<path d="M0 0 C-0.875 5.75 -0.875 5.75 -2 8 C-3.32 7.34 -4.64 6.68 -6 6 C-5.67 4.35 -5.34 2.7 -5 1 C-2 0 -2 0 0 0 Z " fill="#F7904C" transform="translate(294,160)"/>
<path d="M0 0 C0.33 0 0.66 0 1 0 C1.25413123 3.62370661 1.47405533 7.24868737 1.6875 10.875 C1.76033203 11.90753906 1.83316406 12.94007813 1.90820312 14.00390625 C1.96298828 14.99003906 2.01777344 15.97617187 2.07421875 16.9921875 C2.13182373 17.90339355 2.18942871 18.81459961 2.2487793 19.75341797 C2.16668213 20.49479004 2.08458496 21.23616211 2 22 C1.01 22.66 0.02 23.32 -1 24 C-0.67 16.08 -0.34 8.16 0 0 Z " fill="#E39F78" transform="translate(275,295)"/>
<path d="M0 0 C0.33 0 0.66 0 1 0 C1.304 8.968 1.304 8.968 -1 13 C-3.125 14.8125 -3.125 14.8125 -5 16 C-5.66 15.67 -6.32 15.34 -7 15 C-6.21625 14.195625 -5.4325 13.39125 -4.625 12.5625 C-1.42870943 8.78671199 -0.71431378 4.79762984 0 0 Z " fill="#FDF3D9" transform="translate(262,188)"/>
<path d="M0 0 C4 4.75 4 4.75 4 7 C5.32 7.33 6.64 7.66 8 8 C8.33 9.98 8.66 11.96 9 14 C5.74808029 10.83841139 2.58685081 7.73656228 0 4 C0 2.68 0 1.36 0 0 Z " fill="#ED9C69" transform="translate(163,164)"/>
<path d="M0 0 C2.475 0.495 2.475 0.495 5 1 C5.33 3.31 5.66 5.62 6 8 C4.68 7.67 3.36 7.34 2 7 C2 5.35 2 3.7 2 2 C1.34 2 0.68 2 0 2 C0 1.34 0 0.68 0 0 Z " fill="#F98F4B" transform="translate(193,146)"/>
<path d="M0 0 C1.65 0.33 3.3 0.66 5 1 C5 1.66 5 2.32 5 3 C4.01 3.33 3.02 3.66 2 4 C1.67 4.66 1.34 5.32 1 6 C0.34 6 -0.32 6 -1 6 C-1.33 6.99 -1.66 7.98 -2 9 C-2.33 8.34 -2.66 7.68 -3 7 C-2.06421005 4.64018187 -1.06652192 2.30368736 0 0 Z " fill="#EF9861" transform="translate(322,142)"/>
<path d="M0 0 C0.33 1.32 0.66 2.64 1 4 C-0.44521352 6.33986951 -2.05584605 8.05584605 -4 10 C-4.99 9.67 -5.98 9.34 -7 9 C-4.69 6.03 -2.38 3.06 0 0 Z " fill="#FEF1E2" transform="translate(351,190)"/>
<path d="M0 0 C5.11465584 0.85244264 8.47443246 2.15392632 12 6 C12.66 6.66 13.32 7.32 14 8 C8.88534416 7.14755736 5.52556754 5.84607368 2 2 C1.34 1.34 0.68 0.68 0 0 Z " fill="#F6F4E8" transform="translate(315,276)"/>
<path d="M0 0 C1.65 0 3.3 0 5 0 C4.60196439 2.88575819 4.20990931 3.82189513 1.9375 5.75 C1.298125 6.1625 0.65875 6.575 0 7 C-0.93423645 3.98968256 -1.04449911 3.13349732 0 0 Z " fill="#F5BC67" transform="translate(272,208)"/>
<path d="M0 0 C0.66 0 1.32 0 2 0 C2 0.66 2 1.32 2 2 C2.66 2 3.32 2 4 2 C4.33 3.32 4.66 4.64 5 6 C3.68 6.33 2.36 6.66 1 7 C-0.0625 4.625 -0.0625 4.625 -1 2 C-0.67 1.34 -0.34 0.68 0 0 Z " fill="#F99251" transform="translate(150,195)"/>
<path d="M0 0 C-0.66 0 -1.32 0 -2 0 C-2.33 0.99 -2.66 1.98 -3 3 C-3.99 3 -4.98 3 -6 3 C-6 3.66 -6 4.32 -6 5 C-6.99 4.67 -7.98 4.34 -9 4 C-8.25 2.0625 -8.25 2.0625 -7 0 C-4.04680182 -1.23843794 -3.12561472 -1.04187157 0 0 Z " fill="#FBBC58" transform="translate(327,329)"/>
<path d="M0 0 C1.33804687 0.04060547 1.33804687 0.04060547 2.703125 0.08203125 C3.37859375 0.11683594 4.0540625 0.15164063 4.75 0.1875 C0.91295224 2.74553184 -3.00712791 4.53255724 -7.6875 3.8125 C-8.203125 3.60625 -8.71875 3.4 -9.25 3.1875 C-6.10408067 0.38704377 -4.182936 -0.16511589 0 0 Z " fill="#FFF9E5" transform="translate(305.25,331.8125)"/>
<path d="M0 0 C0.99 0.33 1.98 0.66 3 1 C0.03 4.96 0.03 4.96 -3 9 C-4 7 -4 7 -3.1875 4.5 C-2 2 -2 2 0 0 Z " fill="#EF9868" transform="translate(284,304)"/>
<path d="M0 0 C1.2065625 0.0309375 1.2065625 0.0309375 2.4375 0.0625 C2.4375 0.7225 2.4375 1.3825 2.4375 2.0625 C3.0975 2.0625 3.7575 2.0625 4.4375 2.0625 C4.4375 3.0525 4.4375 4.0425 4.4375 5.0625 C0.74995243 4.56418276 -1.16740662 3.96182357 -3.5625 1.0625 C-2.5625 0.0625 -2.5625 0.0625 0 0 Z " fill="#FB904B" transform="translate(223.5625,208.9375)"/>
<path d="M0 0 C-0.33 0.99 -0.66 1.98 -1 3 C-4.5625 4.1875 -4.5625 4.1875 -8 5 C-7.34 4.01 -6.68 3.02 -6 2 C-6.66 2 -7.32 2 -8 2 C-8 1.34 -8 0.68 -8 0 C-2.25 -1.125 -2.25 -1.125 0 0 Z " fill="#FBF6E8" transform="translate(304,193)"/>
<path d="M0 0 C0.66 0.33 1.32 0.66 2 1 C0.87994369 4.36016893 -0.37211797 5.69064913 -3 8 C-3.66 8 -4.32 8 -5 8 C-5 8.66 -5 9.32 -5 10 C-5.66 9.67 -6.32 9.34 -7 9 C-6.02180976 7.68677212 -5.0424189 6.37443848 -4.0625 5.0625 C-3.51722656 4.33160156 -2.97195313 3.60070312 -2.41015625 2.84765625 C-1 1 -1 1 0 0 Z " fill="#EC9E6C" transform="translate(333,160)"/>
<path d="M0 0 C-1.75722991 4.31320068 -4.8062168 7.9031084 -9 10 C-7.6834994 5.81113445 -4.97532335 0 0 0 Z " fill="#FEF2E3" transform="translate(342,164)"/>
<path d="M0 0 C0.33 0.66 0.66 1.32 1 2 C-0.65 2 -2.3 2 -4 2 C-4 3.98 -4 5.96 -4 8 C-5.32 7.67 -6.64 7.34 -8 7 C-7.42655063 4.13275314 -7.1385485 3.1385485 -5 1 C-2.375 0.375 -2.375 0.375 0 0 Z " fill="#FA8F49" transform="translate(310,244)"/>
<path d="M0 0 C-0.66 0.66 -1.32 1.32 -2 2 C-2.99 2 -3.98 2 -5 2 C-5 3.32 -5 4.64 -5 6 C-3.35 6 -1.7 6 0 6 C0 6.33 0 6.66 0 7 C-1.98 7 -3.96 7 -6 7 C-6.33 4.69 -6.66 2.38 -7 0 C-2.25 -1.125 -2.25 -1.125 0 0 Z " fill="#E8A87C" transform="translate(134,219)"/>
<path d="M0 0 C6.0546875 -0.1953125 6.0546875 -0.1953125 8 0 C10 2 10 2 10.125 5.125 C10.08375 6.07375 10.0425 7.0225 10 8 C9.46375 7.21625 8.9275 6.4325 8.375 5.625 C5.69757158 2.66573701 3.81566975 1.95391744 0 1 C0 0.67 0 0.34 0 0 Z " fill="#FEEFDC" transform="translate(222,133)"/>
<path d="M0 0 C3.80881639 1.44472346 5.29742886 3.32603071 7 7 C6.67 7.99 6.34 8.98 6 10 C3.25722422 6.80009492 1.3697164 3.99500618 0 0 Z " fill="#EB9B69" transform="translate(256,249)"/>
<path d="M0 0 C-0.3125 1.875 -0.3125 1.875 -1 4 C-1.99 4.66 -2.98 5.32 -4 6 C-4 5.01 -4 4.02 -4 3 C-4.99 2.67 -5.98 2.34 -7 2 C-4 0 -4 0 0 0 Z " fill="#EC9F6C" transform="translate(321,236)"/>
<path d="M0 0 C0.66 0.33 1.32 0.66 2 1 C2 1.66 2 2.32 2 3 C-1.37097383 4.49821059 -3.20442119 5 -7 5 C-7 4.34 -7 3.68 -7 3 C-4.69631264 1.93347808 -2.35981813 0.93578995 0 0 Z " fill="#FB8F4C" transform="translate(197,160)"/>
<path d="M0 0 C2.05078125 0.03255208 4.1015625 0.06510417 6.15234375 0.09765625 C5.82234375 1.08765625 5.49234375 2.07765625 5.15234375 3.09765625 C2.27734375 3.22265625 2.27734375 3.22265625 -0.84765625 3.09765625 C-1.50765625 2.43765625 -2.16765625 1.77765625 -2.84765625 1.09765625 C-1.84765625 0.09765625 -1.84765625 0.09765625 0 0 Z " fill="#FABC57" transform="translate(201.84765625,338.90234375)"/>
<path d="M0 0 C4.29 0 8.58 0 13 0 C12 2 12 2 8.75 3.25 C4.83335358 4.03332928 3.42817745 3.86991497 0 2 C0 1.34 0 0.68 0 0 Z " fill="#FBE9D9" transform="translate(281,241)"/>
<path d="M0 0 C1.32 0 2.64 0 4 0 C4 1.65 4 3.3 4 5 C2.68 5 1.36 5 0 5 C-0.5625 3.0625 -0.5625 3.0625 -1 1 C-0.67 0.67 -0.34 0.34 0 0 Z " fill="#FA914D" transform="translate(144,189)"/>
<path d="M0 0 C2.97 0.495 2.97 0.495 6 1 C5.67 1.99 5.34 2.98 5 4 C3.35 4 1.7 4 0 4 C0 2.68 0 1.36 0 0 Z " fill="#FC8F45" transform="translate(300,135)"/>
<path d="M0 0 C0.99 0.33 1.98 0.66 3 1 C-1.625 5.875 -1.625 5.875 -5 7 C-3.70700306 4.11562221 -2.34058637 2.12780579 0 0 Z " fill="#FEF8E1" transform="translate(335,315)"/>
<path d="M0 0 C4.875 2.625 4.875 2.625 6 6 C4.33388095 6.042721 2.66617115 6.04063832 1 6 C0 5 0 5 -0.0625 2.4375 C-0.041875 1.633125 -0.02125 0.82875 0 0 Z " fill="#F19963" transform="translate(267,238)"/>
<path d="M0 0 C1.32 0.33 2.64 0.66 4 1 C1.36 2.98 -1.28 4.96 -4 7 C-4.33 5.68 -4.66 4.36 -5 3 C-3.35 2.67 -1.7 2.34 0 2 C0 1.34 0 0.68 0 0 Z " fill="#FEF7E4" transform="translate(225,237)"/>
<path d="M0 0 C0.78375 0.04125 1.5675 0.0825 2.375 0.125 C1.39933888 1.29459987 0.419375 2.46061177 -0.5625 3.625 C-1.10777344 4.2746875 -1.65304687 4.924375 -2.21484375 5.59375 C-2.68019531 6.0990625 -3.14554687 6.604375 -3.625 7.125 C-3.955 7.125 -4.285 7.125 -4.625 7.125 C-4.75 4.75 -4.75 4.75 -4.625 2.125 C-2.625 0.125 -2.625 0.125 0 0 Z " fill="#F2BF70" transform="translate(265.625,217.875)"/>
<path d="M0 0 C0 0.99 0 1.98 0 3 C-0.66 3.66 -1.32 4.32 -2 5 C-5.125 4.625 -5.125 4.625 -8 4 C-8 3.34 -8 2.68 -8 2 C-5.36 1.34 -2.72 0.68 0 0 Z " fill="#F2A06C" transform="translate(374,213)"/>
<path d="M0 0 C0.66 0.99 1.32 1.98 2 3 C1.67 3.99 1.34 4.98 1 6 C0.01 5.67 -0.98 5.34 -2 5 C-2 5.66 -2 6.32 -2 7 C-2.66 6.67 -3.32 6.34 -4 6 C-1.125 1.125 -1.125 1.125 0 0 Z " fill="#F2C16C" transform="translate(339,314)"/>
<path d="M0 0 C0.99 0 1.98 0 3 0 C3.33 1.65 3.66 3.3 4 5 C4.66 5 5.32 5 6 5 C6.33 6.32 6.66 7.64 7 9 C3.26115668 6.34345343 1.35021826 4.41889613 0 0 Z " fill="#EFC077" transform="translate(209,304)"/>
<path d="M0 0 C1.13199353 0.9080162 2.25532363 1.82683826 3.375 2.75 C4.00148438 3.26046875 4.62796875 3.7709375 5.2734375 4.296875 C7.08312318 6.08199481 8.00117455 7.67949644 9 10 C8.34 10 7.68 10 7 10 C7 9.34 7 8.68 7 8 C6.01 7.67 5.02 7.34 4 7 C0 2.54285714 0 2.54285714 0 0 Z " fill="#E99B66" transform="translate(273,244)"/>
<path d="M0 0 C0.33 0.66 0.66 1.32 1 2 C-2.32307692 6.8 -2.32307692 6.8 -5.75 7.8125 C-6.4925 7.874375 -7.235 7.93625 -8 8 C-5.33333333 5.33333333 -2.66666667 2.66666667 0 0 Z " fill="#FDECD7" transform="translate(387,212)"/>
<path d="M0 0 C0.99 0.33 1.98 0.66 3 1 C2.45773019 4.79588866 0.79872437 6.47211993 -2 9 C-2.33 7.68 -2.66 6.36 -3 5 C-2.01 5 -1.02 5 0 5 C0 3.35 0 1.7 0 0 Z " fill="#EC9D6B" transform="translate(353,181)"/>
<path d="M0 0 C1.54571278 2.31856917 2.79618552 4.50638429 4 7 C3.01 7.66 2.02 8.32 1 9 C1 8.01 1 7.02 1 6 C0.34 6 -0.32 6 -1 6 C-0.67 4.02 -0.34 2.04 0 0 Z " fill="#F8904C" transform="translate(160,170)"/>
<path d="M0 0 C0.66 0.33 1.32 0.66 2 1 C1.01 2.485 1.01 2.485 0 4 C-0.66 4 -1.32 4 -2 4 C-2.103125 4.61875 -2.20625 5.2375 -2.3125 5.875 C-3 8 -3 8 -6 10 C-4.6302836 6.00499382 -2.74277578 3.19990508 0 0 Z " fill="#FEF4D9" transform="translate(165,287)"/>
<path d="M0 0 C0.66 0.33 1.32 0.66 2 1 C2 1.66 2 2.32 2 3 C2.99 3.66 3.98 4.32 5 5 C5 5.66 5 6.32 5 7 C2.08482708 5.92598892 0.22189824 5.22189824 -2 3 C-1.34 2.01 -0.68 1.02 0 0 Z " fill="#F88E48" transform="translate(135,199)"/>
<path d="M0 0 C2.97 0.495 2.97 0.495 6 1 C5.67 2.32 5.34 3.64 5 5 C4.01 5 3.02 5 2 5 C1.34 3.35 0.68 1.7 0 0 Z " fill="#F98F4A" transform="translate(231,129)"/>
<path d="M0 0 C2.64 0 5.28 0 8 0 C8.33 0.66 8.66 1.32 9 2 C6.69 2.33 4.38 2.66 2 3 C1.34 2.01 0.68 1.02 0 0 Z " fill="#F98E49" transform="translate(221,129)"/>
<path d="M0 0 C4.95 0.99 4.95 0.99 10 2 C10 2.33 10 2.66 10 3 C7.36 3.33 4.72 3.66 2 4 C1.34 2.68 0.68 1.36 0 0 Z " fill="#F4BD6F" transform="translate(192,334)"/>
<path d="M0 0 C2.97 0.99 5.94 1.98 9 3 C9 3.33 9 3.66 9 4 C6.36 3.67 3.72 3.34 1 3 C0.67 2.01 0.34 1.02 0 0 Z " fill="#F2C685" transform="translate(183,330)"/>
<path d="M0 0 C3.48331435 3.01887244 4.79157144 5.56909529 6 10 C2.65756352 8.10595266 2.02002851 7.05908409 0.75 3.3125 C0.5025 2.219375 0.255 1.12625 0 0 Z " fill="#ED9F70" transform="translate(282,254)"/>
<path d="M0 0 C1.32 0.33 2.64 0.66 4 1 C2.02 3.97 2.02 3.97 0 7 C-0.66 5.68 -1.32 4.36 -2 3 C-1.34 2.01 -0.68 1.02 0 0 Z " fill="#EC9762" transform="translate(300,256)"/>
<path d="M0 0 C0.66 0.33 1.32 0.66 2 1 C1.67 2.32 1.34 3.64 1 5 C-0.98 5 -2.96 5 -5 5 C-3.35 3.35 -1.7 1.7 0 0 Z " fill="#F5C271" transform="translate(238,229)"/>
<path d="M0 0 C0.33 0 0.66 0 1 0 C0.50769231 6.4 0.50769231 6.4 -2.0625 9.4375 C-2.701875 9.953125 -3.34125 10.46875 -4 11 C-3.21681311 7.08406554 -1.60820142 3.63593365 0 0 Z " fill="#FDE6D3" transform="translate(383,199)"/>
<path d="M0 0 C2.95183101 2.95183101 3.08663988 5.95511947 4 10 C2.68 9.34 1.36 8.68 0 8 C0.66 8 1.32 8 2 8 C1.34 7.01 0.68 6.02 0 5 C-0.125 2.3125 -0.125 2.3125 0 0 Z " fill="#FEE7CF" transform="translate(157,174)"/>
<path d="M0 0 C0.33 0.99 0.66 1.98 1 3 C1.66 3 2.32 3 3 3 C3.66 5.31 4.32 7.62 5 10 C0.07692308 5.69230769 0.07692308 5.69230769 -0.3125 2.1875 C-0.209375 1.465625 -0.10625 0.74375 0 0 Z " fill="#ED9760" transform="translate(131,174)"/>
<path d="M0 0 C4.875 3.625 4.875 3.625 6 7 C4.35 7 2.7 7 1 7 C0.67 4.69 0.34 2.38 0 0 Z " fill="#ED9D6B" transform="translate(207,157)"/>
<path d="M0 0 C0.99 0.33 1.98 0.66 3 1 C2.360625 1.268125 1.72125 1.53625 1.0625 1.8125 C-1.33131686 2.88667752 -1.33131686 2.88667752 -2 6 C-2.99 5.34 -3.98 4.68 -5 4 C-2.6875 1.9375 -2.6875 1.9375 0 0 Z " fill="#E8C692" transform="translate(166,284)"/>
<path d="M0 0 C1.11375 0.1546875 1.11375 0.1546875 2.25 0.3125 C1.26 0.8075 1.26 0.8075 0.25 1.3125 C0.25 1.9725 0.25 2.6325 0.25 3.3125 C-2.06 3.9725 -4.37 4.6325 -6.75 5.3125 C-3.42692308 0.38942308 -3.42692308 0.38942308 0 0 Z " fill="#ECE1C8" transform="translate(175.75,278.6875)"/>
<path d="M0 0 C0.33 0 0.66 0 1 0 C1.25 2.8125 1.25 2.8125 1 6 C-1 7.875 -1 7.875 -3 9 C-2.01 6.03 -1.02 3.06 0 0 Z " fill="#FEF4DE" transform="translate(228,270)"/>
<path d="M0 0 C1.32 0.33 2.64 0.66 4 1 C4.33 3.31 4.66 5.62 5 8 C2.74754119 5.31158141 1.11786042 3.35358125 0 0 Z " fill="#F2C277" transform="translate(194,259)"/>
<path d="M0 0 C0.66 0.33 1.32 0.66 2 1 C0.29374499 3.78388975 -0.47626739 4.85384206 -3.6875 5.75 C-4.8321875 5.87375 -4.8321875 5.87375 -6 6 C-4 4 -2 2 0 0 Z " fill="#FEF5DB" transform="translate(289,201)"/>
<path d="M0 0 C2.0625 0.4375 2.0625 0.4375 4 1 C2.1875 3 2.1875 3 0 5 C-0.99 5 -1.98 5 -3 5 C-1.125 1.125 -1.125 1.125 0 0 Z " fill="#F98E48" transform="translate(115,193)"/>
<path d="M0 0 C1.134375 0.020625 2.26875 0.04125 3.4375 0.0625 C2.880625 0.330625 2.32375 0.59875 1.75 0.875 C-0.75962523 2.16372647 -3.15584236 3.59176478 -5.5625 5.0625 C-4.43693182 0.07784091 -4.43693182 0.07784091 0 0 Z " fill="#FEF5E5" transform="translate(119.5625,186.9375)"/>
<path d="M0 0 C1.65 1.65 3.3 3.3 5 5 C4.01 5.495 4.01 5.495 3 6 C2.67 6.99 2.34 7.98 2 9 C1.34 6.03 0.68 3.06 0 0 Z " fill="#FEE2C9" transform="translate(161,165)"/>
<path d="M0 0 C0.33 0 0.66 0 1 0 C1.17942163 3.94727588 1.09350689 6.5980513 -1 10 C-1.66 10 -2.32 10 -3 10 C-2.01 6.7 -1.02 3.4 0 0 Z " fill="#FEF0DF" transform="translate(296,159)"/>
<path d="M0 0 C1.98 0.99 1.98 0.99 4 2 C4 3.98 4 5.96 4 8 C1.84622436 5.37801226 0.59927826 3.35595828 0 0 Z " fill="#EE9C64" transform="translate(233,153)"/>
<path d="M0 0 C2.64 0.33 5.28 0.66 8 1 C7.01 2.485 7.01 2.485 6 4 C4.125 3.6875 4.125 3.6875 2 3 C1.34 2.01 0.68 1.02 0 0 Z " fill="#F4965A" transform="translate(195,153)"/>
<path d="M0 0 C0.33 0 0.66 0 1 0 C1.25 2.75 1.25 2.75 1 6 C-1 8.375 -1 8.375 -3 10 C-2.01 6.7 -1.02 3.4 0 0 Z " fill="#E9A172" transform="translate(295,142)"/>
<path d="M0 0 C1.08667969 0.29197266 1.08667969 0.29197266 2.1953125 0.58984375 C2.74960938 0.74582031 3.30390625 0.90179688 3.875 1.0625 C3.545 1.7225 3.215 2.3825 2.875 3.0625 C1.946875 2.8975 1.01875 2.7325 0.0625 2.5625 C-3.08121353 1.98501612 -3.08121353 1.98501612 -6.125 2.0625 C-6.125 1.4025 -6.125 0.7425 -6.125 0.0625 C-3.57797384 -1.21101308 -2.6967055 -0.73941925 0 0 Z " fill="#E9985F" transform="translate(228.125,147.9375)"/>
</svg>
